<?xml version="1.0" standalone="no"?>
<!DOCTYPE svg PUBLIC "-//W3C//DTD SVG 1.1//EN" "http://www.w3.org/Graphics/SVG/1.1/DTD/svg11.dtd" >
<!--
2013-9-30: Created.
-->
<svg>
<metadata>
Created by iconfont
</metadata>
<defs>

<font id="iconfont" horiz-adv-x="1024" >
  <font-face
    font-family="iconfont"
    font-weight="500"
    font-stretch="normal"
    units-per-em="1024"
    ascent="896"
    descent="-128"
  />
    <missing-glyph />
    
    <glyph glyph-name="shezhi" unicode="&#58902;" d="M576.661695-60.399369 475.05353-60.399369l-29.641087 134.731564c-28.670993 7.734148-58.597583 24.189935-90.947362 44.962028l-110.861924-70.784136-71.740928 72.208579 68.753897 121.078613c-13.632485 24.89397-24.069185 50.092885-30.448476 74.78424L62.966077 353.455333l0 101.765755 151.655002 29.551036c7.207146 25.375947 17.651009 49.720402 30.80868 72.568782l-73.553203 124.560924 71.926146 71.725578 118.676913-79.347163c23.569812 13.662161 50.152237 24.473391 79.19162 32.206516l0.62217-3.746324 32.926924 131.227764 101.276614 0 32.567743-129.888256c24.826432-6.605442 48.660256-13.805424 71.02666-25.970488l123.335003 74.163093 71.350025-71.424726-76.615958-113.163339c15.114233-24.577768 26.869974-52.745295 35.656081-85.876879l123.520221-26.888394 0-101.089349-120.863718-34.147728c-6.010901-26.458605-15.22168-58.229193-32.336476-88.089267l71.446215-110.177332-71.482031-72.109318-116.100228 65.361637c-28.271904-16.739243-55.168484-33.334199-81.732489-40.367383L576.661695-60.399369zM499.624135-28.676877l52.466955 0 28.415167 129.049145 9.494235 4.372587c28.693506 6.417153 57.995879 20.170388 89.600691 39.73805l7.734148 5.352915 111.403253-62.440098 37.473473 37.944194-68.566632 105.793488 5.296633 8.385994c15.640212 24.63098 26.541493 54.147224 35.351136 95.659687l1.506307 9.111518 115.813702 32.847106 0 52.985772-117.551276 25.820062-2.054799 9.366322c-9.148357 37.743626-21.892613 68.573795-39.188534 94.257757l-5.747911 8.621355 73.987085 109.515253-36.625152 36.953633-113.2626-66.354244-6.105045-1.579985-6.919597 2.791579c-23.329335 13.527085-48.560996 23.750937-75.005274 30.393217l-4.137227 1.038656-11.795651 6.798846-28.949332 114.5008L499.459383 802.246733 470.750527 688.859289l-10.946306-12.066827-5.296633-0.067538c-31.958876-8.026814-59.44795-18.804275-84.026742-34.249035l-7.643074-4.485151-10.028401 5.618974L247.726058 713.895499l-37.06722-36.95261 66.452481-113.731274 2.264577-9.476839-3.310396-5.412266c-15.061021-24.698518-26.330692-51.441603-33.500998-79.487356l-2.106987-8.259104-19.688411-6.220678-126.081557-24.532743 0-52.308343 129.045051-32.462343 13.135158-5.476735 1.723248-7.786337c5.875824-26.098401 16.535605-52.887534 31.710212-79.618339l2.460028-4.340865-1.598404-14.362102-60.886719-106.941638 37.449937-37.359886 106.911962 69.462025 8.448416-5.665023c36.07359-24.164353 68.325132-39.20286 98.598622-45.974078l9.494235-6.616698L499.624135-28.676877zM525.857613 242.225019c-84.958974 0-154.075121 69.115124-154.075121 154.075121s69.115124 154.075121 154.075121 154.075121 154.075121-69.115124 154.075121-154.075121S610.81761 242.225019 525.857613 242.225019zM525.857613 519.559419c-67.964928 0-123.260302-55.295374-123.260302-123.260302s55.295374-123.260302 123.260302-123.260302S649.117914 328.335213 649.117914 396.299117 593.82254 519.559419 525.857613 519.559419z"  horiz-adv-x="1024" />

    
    <glyph glyph-name="wode" unicode="&#58990;" d="M960.053977-128l-0.938726 7.791427C933.074988 95.116424 732.506765 270.320267 512 270.320267c-220.506765 0-421.074988-175.185068-447.096476-390.52884l-0.938726-7.791427L5.087896-128l1.051373 9.819075C26.509626 71.68582 159.395695 242.815592 336.814932 307.606468l5.407062 1.990099-4.843827 3.116571c-90.699718 58.332441-144.84544 155.509369-144.84544 259.989586C192.532727 744.921418 341.827729 896 512 896c170.191045 0 319.467273-151.078582 319.467273-323.334825 0-104.461443-54.145723-201.63837-144.84544-259.989586l-4.843827-3.116571 5.407062-1.990099c177.419237-64.809651 310.305306-235.920648 330.675663-425.787393L1018.912104-128 960.053977-128zM512 836.353342c-131.515529 0-260.590371-130.614352-260.590371-263.669392 0-138.912691 137.5797-242.717025 260.590371-242.717025 123.010671 0 260.590371 103.78556 260.590371 242.717025C772.590371 705.73899 643.515529 836.353342 512 836.353342z"  horiz-adv-x="1024" />

    
    <glyph glyph-name="shouhuodizhi" unicode="&#58958;" d="M518.4 848c-214.4 0-390.4-176-390.4-393.6 0-48 16-99.2 41.6-156.8 28.8-57.6 70.4-118.4 118.4-182.4 35.2-41.6 73.6-83.2 108.8-121.6 12.8-12.8 25.6-25.6 35.2-35.2 6.4-6.4 12.8-9.6 12.8-12.8l0 0c38.4-38.4 102.4-38.4 137.6 0 3.2 3.2 6.4 6.4 12.8 12.8 9.6 9.6 22.4 22.4 35.2 35.2 38.4 38.4 73.6 80 108.8 121.6 51.2 60.8 92.8 124.8 118.4 182.4 28.8 57.6 41.6 108.8 41.6 156.8C908.8 672 732.8 848 518.4 848zM822.4 320c-25.6-54.4-64-112-115.2-172.8-35.2-41.6-70.4-83.2-105.6-118.4-12.8-12.8-25.6-25.6-35.2-35.2-6.4-6.4-9.6-9.6-12.8-12.8-19.2-19.2-51.2-19.2-70.4 0l0 0c-3.2 3.2-6.4 6.4-12.8 12.8-9.6 9.6-22.4 22.4-35.2 35.2-35.2 38.4-73.6 76.8-105.6 118.4-48 60.8-86.4 118.4-115.2 172.8-25.6 51.2-38.4 96-38.4 134.4 0 192 153.6 345.6 342.4 345.6 188.8 0 342.4-153.6 342.4-345.6C860.8 416 848 371.2 822.4 320zM518.4 633.6c-96 0-169.6-76.8-169.6-172.8 0-96 76.8-172.8 169.6-172.8s169.6 76.8 169.6 172.8C688 556.8 614.4 633.6 518.4 633.6zM518.4 339.2c-67.2 0-121.6 54.4-121.6 124.8s54.4 124.8 121.6 124.8c67.2 0 121.6-54.4 121.6-124.8S585.6 339.2 518.4 339.2z"  horiz-adv-x="1024" />

    
    <glyph glyph-name="icon-service" unicode="&#58891;" d="M974.871 450.513c-41.715 442.275-462.866 429-462.866 429-394.529-16.107-454.693-328.953-463.798-432.457-1.038-4.35-1.603-8.884-1.603-13.55v-16.482c-0.017-1.907 0-2.91 0-2.91v-90.4h-0.008v-64.948h0.044c33.015-216.411 232.665-310.052 232.665-310.052l77.565-77.565c70.863 23.482 38.784 77.565 38.784 77.565l-77.567 77.567-38.782-38.784c-166.357 109.145-193.684 270.093-193.911 271.453l0.099 3.318c6.035-2.118 12.521-3.286 19.287-3.286 15.851 0 30.204 6.341 40.691 16.61 55.205-157.5 209.272-249.309 366.496-249.309 158.736 0 311.121 86.738 366.209 249.653 10.518-10.474 25.023-16.955 41.053-16.955 32.155 0 58.173 26.058 58.173 58.175v116.349c0.001 5.916-0.887 11.626-2.53 17.007zM508.256 177.778c-123.245 0-205.81 86.809-220.656 231.299h29.086c23.558-111.767 87.339-167.669 191.341-167.669 103.966 0 167.708 55.903 191.304 167.669h30.034c-14.844-144.49-97.943-231.299-221.108-231.299zM344.676 549.061c0 35.716 20.148 64.651 45.031 64.651 24.847 0 44.995-28.936 44.995-64.651 0-35.715-20.15-64.65-44.995-64.65-24.884-0-45.031 28.936-45.031 64.65zM587.035 549.477c0 35.679 20.15 64.614 44.993 64.614 24.847 0 45.034-28.936 45.034-64.614 0-35.715-20.188-64.65-45.034-64.65-24.844-0.001-44.993 28.935-44.993 64.65zM919.229 491.681c-8.97 0-17.46-2.032-25.043-5.653-28.779 179.845-166.558 315.919-382.219 315.919-237.587-9.282-355.091-157.823-381.791-316.090-7.671 3.728-16.287 5.823-25.395 5.823-2.513 0-4.982-0.177-7.412-0.485 77.38 353.877 414.635 349.535 414.635 349.535 298.57-12.739 388.414-230.227 415.276-349.616-2.632 0.364-5.317 0.567-8.051 0.567z"  horiz-adv-x="1024" />

    
    <glyph glyph-name="huiyuan" unicode="&#58980;" d="M765.135766-5.80496 277.478174-5.80496c-4.843308 0-9.230222 4.003174-11.139711 10.201339L153.515884 369.831302c-1.958608 6.363941-0.912789 13.743002 2.639107 18.600637 3.546779 4.876054 8.879228 6.219655 13.443174 3.387144 1.209548-0.747014 121.937167-74.952063 175.365007-74.922387 2.331092 0 4.535293 0.1361 6.564509 0.471744 32.790824 5.316076 112.732527 181.323719 159.034063 304.600393 2.082428 5.566786 6.233981 9.052167 10.744715 9.052167 4.514827 0 8.65717-3.485381 10.749832-9.052167 46.295396-123.276674 126.237099-299.284317 159.01462-304.600393 2.053776-0.335644 4.242627-0.471744 6.583952-0.471744 53.461609 0 174.155459 74.17435 175.36603 74.922387 4.558829 2.832512 9.894348 1.488911 13.446243-3.387144 3.542686-4.857635 4.587482-12.236696 2.628874-18.600637L776.280594 4.396379C774.360871-1.801786 769.972934-5.80496 765.135766-5.80496zM285.478382 27.834184l471.66434 0 97.821933 316.88723c-43.766806-24.687262-126.999462-67.242474-166.717046-60.775178-50.29243 8.16803-133.853567 209.610972-166.942173 294.428729-33.085536-84.816734-116.649743-286.259676-166.957523-294.428729-39.585577-6.427386-122.949216 36.087916-166.69658 60.775178L285.478382 27.834184zM521.305435 649.832438c-37.47552 0-67.966974 30.493501-67.966974 67.973114 0 37.470403 30.492478 67.963904 67.966974 67.963904 37.47552 0 67.967998-30.493501 67.967998-67.963904C589.273433 680.325939 558.780955 649.832438 521.305435 649.832438zM521.305435 753.595686c-19.738553 0-35.796274-16.056698-35.796274-35.791158 0-19.733437 16.057721-35.800367 35.796274-35.800367 19.73753 0 35.790134 16.066931 35.790134 35.800367C557.094546 737.538989 541.042965 753.595686 521.305435 753.595686zM879.054305 422.5899c-34.014698 0-61.685921 27.671223-61.685921 61.676711 0 34.014698 27.671223 61.685921 61.685921 61.685921s61.676711-27.671223 61.676711-61.685921C940.73204 450.261123 913.069003 422.5899 879.054305 422.5899zM879.054305 513.780809c-16.276708 0-29.513174-13.235442-29.513174-29.513174 0-16.268522 13.236466-29.503964 29.513174-29.503964 16.260335 0 29.506011 13.235442 29.506011 29.503964C908.560316 500.545366 895.314641 513.780809 879.054305 513.780809zM142.809031 422.5899c-34.014698 0-61.681828 27.671223-61.681828 61.676711 0 34.014698 27.66713 61.685921 61.681828 61.685921 34.014698 0 61.681828-27.671223 61.681828-61.685921C204.489836 450.261123 176.822706 422.5899 142.809031 422.5899zM142.809031 513.780809c-16.268522 0-29.509081-13.235442-29.509081-29.513174 0-16.268522 13.239536-29.503964 29.509081-29.503964 16.268522 0 29.508058 13.235442 29.508058 29.503964C172.317089 500.545366 159.077553 513.780809 142.809031 513.780809z"  horiz-adv-x="1024" />

    
    <glyph glyph-name="wode1" unicode="&#58988;" d="M528.94403 391.271992C524.575086 395.669679 518.539045 398.429013 511.870656 398.429013 387.643182 398.429013 286.553865 499.202156 286.553865 623.084713 286.553865 746.967271 387.643182 847.769157 511.870656 847.769157 636.098131 847.769157 737.158704 746.967271 737.158704 623.084713 737.158704 556.659518 707.898277 493.999663 656.879358 451.143771 646.761803 442.635828 645.439623 427.545725 654.005052 417.42817 662.512996 407.368102 677.660585 406.017178 687.835626 414.553865 749.719418 466.492562 785.188346 542.517936 785.188346 623.084713 785.188346 773.382137 662.599225 895.655083 511.870656 895.655083 361.142087 895.655083 238.552967 773.382137 238.552967 623.084713 238.552967 514.895863 302.247572 421.480941 394.110369 377.50407 176.669174 324.559367 14.615842 129.192837 14.615842-103.683377 14.615842-116.905182 25.365744-127.62634 38.645035-127.62634 51.895582-127.62634 62.645484-116.905182 62.645484-103.683377 62.645484 143.334419 264.163027 344.248358 511.870656 344.248358 759.549542 344.248358 961.095829 143.334419 961.095829-103.683377 961.095829-116.905182 971.816988-127.62634 985.096278-127.62634 998.375568-127.62634 1009.096727-116.905182 1009.096727-103.683377 1009.096727 163.971931 795.190928 382.217931 528.94403 391.271992Z"  horiz-adv-x="1024" />

    
    <glyph glyph-name="bangzhuzhongxin" unicode="&#58962;" d="M965.009468 576.45729c-24.682146 58.356083-60.010769 110.757546-105.002472 155.750273S762.612805 812.526867 704.256722 837.210036C643.822304 862.771201 579.644633 875.731374 513.506307 875.731374S383.191332 862.771201 322.756915 837.210036C264.401856 812.526867 211.999368 777.199267 167.007665 732.20654c-44.992727-44.991704-80.320327-97.394191-105.002472-155.750273C36.444027 516.022872 23.482831 451.845201 23.482831 385.706875c0-66.138326 12.961196-130.315998 38.522362-190.750415 24.682146-58.355059 60.009745-110.756523 105.002472-155.74925 44.991704-44.992727 97.394191-80.320327 155.74925-105.002472 60.434417-25.561166 124.611066-38.522362 190.749392-38.522362s130.315998 12.961196 190.749392 38.522362c58.356083 24.682146 110.757546 60.010769 155.750273 105.002472s80.320327 97.394191 105.002472 155.74925c25.561166 60.434417 38.522362 124.611066 38.522362 190.750415C1003.531829 451.845201 990.571656 516.022872 965.009468 576.45729zM903.749242 220.868619c-21.329794-50.426483-51.870368-95.723132-90.775446-134.62821-38.906102-38.905078-84.200704-69.445652-134.62821-90.775446-52.190663-22.074761-107.650789-33.267685-164.839279-33.267685-57.187467 0-112.647593 11.192923-164.838256 33.267685-50.427506 21.329794-95.722108 51.870368-134.62821 90.775446s-69.446675 84.200704-90.775446 134.62821c-22.074761 52.190663-33.267685 107.650789-33.267685 164.838256 0 57.18849 11.192923 112.647593 33.267685 164.838256 21.328771 50.427506 51.869345 95.722108 90.775446 134.62821s84.200704 69.446675 134.62821 90.775446c52.190663 22.074761 107.650789 33.267685 164.838256 33.267685 57.18849 0 112.648616-11.192923 164.839279-33.267685 50.426483-21.328771 95.722108-51.869345 134.62821-90.775446 38.905078-38.905078 69.445652-84.200704 90.775446-134.62821 22.073738-52.190663 33.267685-107.650789 33.267685-164.838256C937.016927 328.519408 925.82298 273.059282 903.749242 220.868619zM613.156888 596.090443c-22.810518 18.059308-54.30993 26.5067-89.813538 30.311353l-1.762133 0.189312-1.772366 0c-0.027629 0-0.051165 0-0.079818 0-58.051137 0-101.515045-16.124236-129.176035-47.923476-35.114752-40.368406-29.488615-88.918145-28.731368-94.321202l63.792908 0.010233c0 0 0.055259 9.077749 0.086981 8.80248-0.027629 0.242524-0.505513 24.472368 15.479553 42.35669 16.292058 18.22713 45.837978 23.524786 70.40449 24.415063 4.414543 0.159636 8.831132-0.102331 13.20065-0.757247 34.065863-5.104251 58.042951-18.040888 71.338768-38.518269 3.312442-5.101181 5.311982-10.890025 6.443759-16.724917 3.470031-17.883299-1.293459-36.414351-12.428054-50.832735-20.305465-26.293853-39.641859-42.602284-58.637492-60.33311-26.101471-24.362874-43.327808-50.582025-44.961004-66.5016-2.795673-27.250644-2.64934-61.164035-2.600221-62.565964l59.921741 0c-0.00921 0.25685 0 21.467941 0.64673 43.889603 0.220011 7.632841 1.586125 15.196097 4.983501 22.034852 4.108574 8.270361 17.974373 19.339464 23.901363 24.87248 24.176632 22.566972 44.342927 44.173059 75.553767 87.151919 12.409634 17.08819 18.955724 70.198805 7.674796 102.159728C650.487098 561.202864 639.764895 575.023638 613.156888 596.090443zM483.148905 221.129562l60.715827 0 0-66.538439-60.715827 0 0 66.538439Z"  horiz-adv-x="1024" />

    
    <glyph glyph-name="iconfontzhizuobiaozhun11" unicode="&#58890;" d="M270.989389 361.716484l-0.051165 0c-21.057595 0-39.673581 4.376681-55.330166 13.009292-38.141692 21.193695-61.800531 62.201667-61.800531 107.052155 0 13.167904 2.076288 27.522844 5.871731 40.708144l0 0.959861 72.744791 182.502567c0.026606 0.092098 0.055259 0.191358 0.085958 0.293689 9.193383 30.765701 31.166837 35.360346 43.446511 35.360346l473.834772 0c19.907399 0 38.794561-15.248286 46.084595-37.139875l66.617234-179.00593c3.793396-9.827833 8.312316-36.591383 7.627724-50.024324-2.045589-40.927131-25.856901-80.192414-60.661591-100.013855-15.561417-8.7902-34.463929-13.295817-56.241932-13.431917l-0.12689 0c-40.883129 0-78.087473 21.435195-99.521644 57.338916l-0.699941 1.172709-0.536212 1.25355c-0.731664 1.705851-2.25332 5.252631-4.907777 8.29799l-0.068562 0.078795c-3.752464 4.348028-8.766664 6.461155-15.328104 6.461155-6.14086 0-11.961426-2.359744-14.829753-6.012947l-0.438998-0.538259c-2.542916-3.024893-3.977591-6.119371-5.022387-8.378831l-0.441045-0.950651-0.534166-0.899486c-21.35947-35.974329-58.135048-57.627489-98.371448-57.924247l-0.141216 0-0.13917 0c-40.554648 0.261966-77.535911 21.827121-98.924034 57.690934l-0.649799 1.087774-0.509606 1.160429c-0.521886 1.184989-2.105964 4.793166-4.056386 7.05672l-0.443092 0.533143c-3.25002 4.044106-9.085936 6.363941-16.009625 6.363941-6.977925 0-12.183484-2.532683-14.068414-4.885264l-0.6191-0.738827c-2.036379-2.310625-3.65218-4.959965-4.938476-8.098445l-0.587378-1.435699-0.797156-1.330298c-21.50171-35.843346-58.684564-57.366545-99.465362-57.574277L270.989389 361.715461zM199.481775 512.809691c-3.070942-10.025331-4.762467-21.042245-4.762467-31.03176 0-30.003338 15.595186-57.308217 40.700981-71.25895 9.466606-5.218862 21.417799-7.884574 35.465746-7.891737 25.907043 0.151449 49.668213 13.784958 63.832817 36.556591 2.88163 6.603395 6.532787 12.404518 11.116175 17.676591 10.180873 12.428054 27.211758 19.830651 45.683459 19.830651 19.256576 0 36.614919-7.78736 47.681976-21.378913 4.708232-5.54325 7.744381-11.42419 9.710153-15.753799 14.045901-22.834055 37.624922-36.547381 63.320141-36.760229 25.418926 0.236384 48.836265 14.062274 62.85249 37.065174 1.674129 3.572362 4.780887 9.80225 10.157337 16.257266 10.670014 13.396101 28.128641 21.381983 46.787606 21.381983 18.346857 0 34.772968-7.314593 46.260603-20.597107 5.586229-6.417153 8.93551-12.924357 11.042497-17.649985 14.055111-22.771633 37.777395-36.335556 63.698764-36.357046 14.702863 0.100284 26.898627 2.827395 36.247552 8.107655 26.046213 14.83487 38.865169 44.091194 39.984666 66.488297 0.400113 7.866155-3.287883 28.704762-4.926196 33.211403l-0.12689 0.329505-66.965158 179.937139-0.134053 0.415462c-1.941212 5.988388-6.03546 9.05319-7.395434 9.302877l-473.757001 0c-1.172709 0-1.605567-0.191358-1.609661-0.192382-0.717338-0.528026-1.612731-2.540869-2.63706-5.967922-0.232291-0.771573-0.433882-1.429559-0.607844-1.950422l-0.390903-1.063215L199.481775 512.809691zM171.455465 322.002994l40.910759 0 0-294.319236-40.910759 0 0 294.319236ZM811.61638 322.002994l40.910759 0 0-294.319236-40.910759 0 0 294.319236ZM204.709847 68.495256l624.50433 0 0-40.932248-624.50433 0 0 40.932248Z"  horiz-adv-x="1024" />

    
    <glyph glyph-name="shouyejiedan" unicode="&#58931;" d="M374.980901 810.666667 635.799016 810.666667C655.996879 810.666667 672.370444 827.040251 672.370444 847.238095 672.370444 867.435939 655.996879 883.809524 635.799016 883.809524L374.980901 883.809524C354.783037 883.809524 338.409472 867.435939 338.409472 847.238095 338.409472 827.040251 354.783037 810.666667 374.980901 810.666667ZM805.919842 789.620151C837.376683 789.620151 863.806903 761.562639 863.806903 725.935679L863.806903 23.882601C863.806903-11.749605 837.371855-39.801866 805.919842-39.801866L191.982299-39.801866C160.525458-39.801866 134.095238-11.744358 134.095238 23.882601L134.095238 725.935679C134.095238 761.567885 160.530237 789.620151 191.982299 789.620151 212.180114 789.620151 228.553728 805.993735 228.553728 826.191579 228.553728 846.389419 212.180114 862.763008 191.982299 862.763008 119.131624 862.763008 60.952381 801.024458 60.952381 725.935679L60.952381 23.882601C60.952381-51.195324 119.120408-112.944723 191.982299-112.944723L805.919842-112.944723C878.770469-112.944723 936.94976-51.206178 936.94976 23.882601L936.94976 725.935679C936.94976 801.013604 878.781684 862.763008 805.919842 862.763008 785.721978 862.763008 769.348413 846.389419 769.348413 826.191579 769.348413 805.993735 785.721978 789.620151 805.919842 789.620151ZM280.527433 590.077099 729.336734 590.077099C749.534598 590.077099 765.908163 606.450683 765.908163 626.648527 765.908163 646.846366 749.534598 663.219956 729.336734 663.219956L280.527433 663.219956C260.32957 663.219956 243.956005 646.846366 243.956005 626.648527 243.956005 606.450683 260.32957 590.077099 280.527433 590.077099ZM280.527433 364.84354 729.336734 364.84354C749.534598 364.84354 765.908163 381.217124 765.908163 401.414968 765.908163 421.612807 749.534598 437.986397 729.336734 437.986397L280.527433 437.986397C260.32957 437.986397 243.956005 421.612807 243.956005 401.414968 243.956005 381.217124 260.32957 364.84354 280.527433 364.84354ZM280.527433 144.253967 729.336734 144.253967C749.534598 144.253967 765.908163 160.627556 765.908163 180.825395 765.908163 201.023239 749.534598 217.396824 729.336734 217.396824L280.527433 217.396824C260.32957 217.396824 243.956005 201.023239 243.956005 180.825395 243.956005 160.627556 260.32957 144.253967 280.527433 144.253967Z"  horiz-adv-x="1024" />

    
    <glyph glyph-name="fapiao" unicode="&#58914;" d="M734.534817 662.229792 289.408901 662.229792c-15.376199 0-27.820626-12.443403-27.820626-27.820626 0-15.377222 12.443403-27.820626 27.820626-27.820626l445.124893 0c15.377222 0 27.873838 12.44238 27.873838 27.820626C762.408655 649.786389 749.91204 662.229792 734.534817 662.229792zM734.534817 495.254873 289.408901 495.254873c-15.376199 0-27.820626-12.388145-27.820626-27.821649 0-15.322987 12.443403-27.820626 27.820626-27.820626l445.124893 0c15.377222 0 27.820626 12.497639 27.820626 27.820626C762.35442 482.865705 749.91204 495.254873 734.534817 495.254873zM734.534817 328.386378 289.408901 328.386378c-15.376199 0-27.820626-12.44238-27.820626-27.820626s12.443403-27.820626 27.820626-27.820626l445.124893 0c15.377222 0 27.820626 12.44238 27.820626 27.820626S749.91204 328.386378 734.534817 328.386378zM511.971859 161.464671 289.408901 161.464671c-15.376199 0-27.820626-12.44238-27.820626-27.820626s12.443403-27.874861 27.820626-27.874861l222.562958 0c15.431457 0 27.873838 12.497639 27.873838 27.874861S527.40434 161.464671 511.971859 161.464671zM785.121959 829.152523 238.822782 829.152523c-48.794309 0-88.51394-35.917024-88.51394-79.983659l0-730.281445c0-44.121893 39.71963-80.037894 88.51394-80.037894l356.664166 0 55.641251 0 20.320814 0 202.241121 184.906314L873.690134 749.16784C873.690134 793.235498 833.970504 829.152523 785.121959 829.152523zM651.128199-4.31605l0 82.265632c0 15.32401 12.44238 27.820626 27.76639 27.820626l92.64298 0L651.128199-4.31605zM818.049906 161.464671 678.894589 161.464671c-46.02422 0-83.407642-37.437657-83.407642-83.515089l0-83.460854L238.822782-5.511271c-17.822924 0-32.873712 11.192923-32.873712 24.397666L205.949071 749.16784c0 13.20372 15.050788 24.342408 32.873712 24.342408l546.299177 0c17.821901 0 32.927947-11.138688 32.927947-24.342408L818.049906 161.464671z"  horiz-adv-x="1024" />

    
    <glyph glyph-name="yinhangqiashezhi" unicode="&#58882;" d="M896-32.256H128a128 128 0 0 0-128 128.064V672.192a128 128 0 0 0 128 128.064h768a128 128 0 0 0 128-128.064v-576.384a128 128 0 0 0-128-128.064z m-768 64h768a64 64 0 0 1 64.064 64.064V544.128H63.936v-448.32A64 64 0 0 1 128 31.744zM896 736.256H128A64 64 0 0 1 63.936 672.192v-64.064h896.128V672.192A64 64 0 0 1 896 736.256zM159.936 351.936H480a32 32 0 0 0 0-64H159.936a32 32 0 0 0 0 64z m0-128H416a32.064 32.064 0 0 0 0-64.064H159.936a32 32 0 0 0 0 64.064z m448.064 128h63.936a32 32 0 1 0 0-64H608a32 32 0 0 0 0 64z m0 0"  horiz-adv-x="1024" />

    
    <glyph glyph-name="wode2" unicode="&#58968;" d="M955.196806 22.095713c-0.255489 3.709701-0.800192 9.350898-1.754699 16.684455-1.781269 13.690124-4.458794 28.86515-8.214483 45.165349-10.719297 46.530683-27.976048 93.082826-53.345086 136.734659-66.635625 114.658363-175.733525 187.866188-333.443832 199.762778 92.692439 21.116679 161.863537 103.975856 161.863537 202.980918C720.302244 738.405174 627.005828 831.616766 511.919265 831.616766s-208.382978-93.211593-208.382978-208.193916c0-99.006084 69.173142-181.86424 161.865581-202.980918-157.714395-11.899657-266.816383-85.12792-333.45814-199.818986-25.37006-43.663074-42.629876-90.227481-53.351218-136.770427-3.755689-16.305309-6.434236-31.483401-8.216527-45.176591-0.98721-7.58087-1.536-13.346747-1.779226-17.04725C62.537581-24.815138 96.654563-63.616766 143.817836-63.616766l312.491689 0 111.221525 0 312.491689 0C927.396535-63.616766 962.228886-24.395114 955.196806 22.095713zM359.10515 623.42285c0 84.320575 68.416894 152.67513 152.814116 152.67513s152.814116-68.355577 152.814116-152.67513c0-84.320575-68.416894-152.67513-152.814116-152.67513S359.10515 539.102275 359.10515 623.42285zM880.020695-8.09798 567.530028-8.09798c-55.597477 0-55.597477 0-111.221525 0L143.817836-8.09798c-13.765749 0-22.042571 9.538938-20.058954 23.026715l0.183952 1.249852 0.069493 1.262116c0.022483 0.415936 0.102196 1.515561 0.258555 3.251864 0.27695 3.078132 0.673469 6.701988 1.211018 10.824559 1.558483 11.971194 3.925333 25.391521 7.265086 39.884902 9.549158 41.452583 24.90507 82.882683 47.256271 121.34911 63.339816 109.00899 169.315641 173.900136 331.91703 173.900136 162.603433 0 268.57517-64.87275 331.907832-173.848016 22.348136-38.453142 37.700982-79.869956 47.247074-121.309253 3.337709-14.488271 5.704559-27.904511 7.26202-39.871617 0.536527-4.120527 0.933046-7.743361 1.209996-10.820471 0.156359-1.735281 0.23505-2.833884 0.258555-3.24982l0.087888-1.607537 0.273884-1.586076C902.380072 1.529868 893.967329-8.09798 880.020695-8.09798z"  horiz-adv-x="1024" />

    
    <glyph glyph-name="gouwu" unicode="&#58883;" d="M829.724927 101.183419l-42.686803 568.0782c-0.629689 8.368215-7.604396 15.185243-15.996161 15.185243H253.450526c-8.391764 0-15.366471-6.817028-15.996161-15.185243l-42.775881-569.096965c-0.333787-4.45083 1.199994-8.587326 4.235814-11.859664 3.03582-3.272337 7.297231-4.878814 11.760346-4.878814h603.187227c8.858656 0 16.041211 6.842626 16.041212 15.701282-0.001024 0.815013-0.061433 1.274737-0.178156 2.055961z m-601.757883 13.984226l40.363607 537.539796H756.162862l40.363607-537.539796H227.967044z m425.976226 485.158846c0-9.227255-4.807142-17.340522-12.036796-22.008415-10.507111-62.084311-64.630713-109.528085-129.658694-109.528084s-119.151583 47.444798-129.658694 109.528084c-7.229654 4.667893-12.036796 12.781161-12.036796 22.008415 0 14.447022 11.75318 26.200202 26.200202 26.200202s26.200202-11.75318 26.200201-26.200202c0-7.524533-3.205785-14.298559-8.302686-19.08215 8.927256-45.739005 49.285744-80.37295 97.597773-80.372951 48.312029 0 88.670517 34.633945 97.597773 80.372951-5.095877 4.782568-8.302686 11.557618-8.302686 19.08215 0 14.447022 11.75318 26.200202 26.200202 26.200202s26.200202-11.752156 26.200201-26.200202z"  horiz-adv-x="1024" />

    
    <glyph glyph-name="shouhuodizhi1" unicode="&#58967;" d="M512 896C306.567529 896 138.812235 734.629647 128.512 531.757176 116.254118 285.485176 340.359529 16.986353 512-128c171.640471 144.986353 395.745882 413.485176 383.488 659.757176C885.187765 734.629647 717.432471 896 512 896z m0-543.984941a159.984941 159.984941 0 0 0-159.984941 160.015059 159.984941 159.984941 0 1 0 319.969882 0A159.984941 159.984941 0 0 0 512 352.015059z m0 319.969882z"  horiz-adv-x="1024" />

    
    <glyph glyph-name="gouwu1" unicode="&#58888;" d="M890.01984 538.39872c0 61.62432-50.13504 111.7696-111.7696 111.7696h-68.25984v23.06048c0 113.36704-92.23168 205.59872-205.59872 205.59872s-205.59872-92.23168-205.59872-205.59872v-23.06048h-68.23936c-61.62432 0-111.75936-50.13504-111.74912-110.9504l-21.7088-548.5056c0-61.62432 50.13504-111.75936 111.7696-111.75936H799.9488c61.62432 0 111.75936 50.13504 111.73888 112.56832l-21.66784 546.87744zM339.75296 673.21856c0 90.78784 73.85088 164.63872 164.63872 164.63872s164.63872-73.85088 164.63872-164.63872v-23.06048H339.75296v23.06048zM799.9488-80.09728H208.86528c-39.03488 0-70.8096 31.76448-70.81984 69.9904l21.7088 548.5056c0 39.03488 31.76448 70.8096 70.79936 70.8096H778.24c39.03488 0 70.8096-31.76448 70.83008-71.61856l21.66784-546.88768a70.8608 70.8608 0 0 0-70.78912-70.79936zM504.39168 194.05824c-96.36864 0-174.76608 78.39744-174.76608 174.76608h-40.96c0-118.94784 96.77824-215.72608 215.72608-215.72608 118.95808 0 215.72608 96.77824 215.72608 215.72608h-40.96c0-96.36864-78.39744-174.76608-174.76608-174.76608z"  horiz-adv-x="1024" />

    
    <glyph glyph-name="shezhi1" unicode="&#58956;" d="M510.464 540.672c-97.28 0-176.64-79.36-176.64-176.64s79.36-176.64 176.64-176.64c30.208 0 60.416 7.68 86.528 22.528 8.704 5.12 12.288 16.384 7.168 25.088-5.12 8.704-16.384 12.288-25.088 7.168-20.48-11.776-44.544-17.92-68.096-17.92-76.8 0-139.264 62.464-139.264 139.264s62.464 139.264 139.264 139.264S650.24 440.32 650.24 363.52c0-24.064-6.144-47.616-17.92-68.608-5.12-8.704-2.048-20.48 7.168-25.088 8.704-5.12 20.48-2.048 25.088 7.168 14.848 26.112 23.04 56.32 23.04 86.528-0.512 97.792-79.872 177.152-177.152 177.152z m413.696-93.184l-125.44 20.48c-2.56 7.168-5.632 14.848-9.216 22.016l74.24 102.912c5.12 7.168 4.608 17.408-2.048 24.064L766.976 711.68c-6.656 6.656-16.384 7.168-24.064 2.048l-103.424-74.24c-7.68 3.584-15.36 6.656-23.04 9.216l-19.968 127.488c-1.536 9.216-9.216 15.872-18.432 15.872H444.416c-9.216 0-16.896-6.656-18.432-15.872l-19.968-127.488c-7.168-2.56-13.824-5.632-20.992-8.704L280.576 715.776c-7.168 5.632-17.408 4.608-24.064-2.048L161.792 619.52c-6.656-6.656-7.168-16.896-2.048-24.064L235.52 491.52c-3.584-8.192-7.168-15.872-10.24-24.064l-124.928-19.968c-9.216-1.536-15.872-9.216-15.872-18.432v-134.144c0-9.216 6.656-16.896 15.872-18.432l124.928-19.456c3.072-7.68 6.144-15.872 9.728-23.552l-74.24-102.4c-5.632-7.168-4.608-17.408 2.048-24.064l94.72-94.72c6.656-6.656 16.896-7.168 24.064-2.048l102.4 74.752c7.168-3.584 14.848-6.656 22.528-9.216l19.968-123.392c1.536-9.216 9.216-15.36 18.432-15.36H578.56c9.216 0 16.896 6.656 18.432 15.36l19.968 122.88c8.192 3.072 16.384 6.656 24.576 10.24l100.864-72.704c7.168-5.12 17.408-4.608 24.064 2.048l94.72 94.72c6.656 6.656 7.168 16.384 2.048 24.064L790.016 235.52c3.072 7.168 6.144 13.824 8.704 20.992l125.44 20.48c9.216 1.536 15.36 9.216 15.36 18.432V429.056c0 9.216-6.656 16.896-15.36 18.432z m-22.016-136.704l-120.832-19.456c-6.656-1.024-12.288-6.144-14.848-12.8-4.096-12.8-9.216-25.088-15.36-36.864-3.072-6.144-2.56-13.824 1.536-19.456l70.656-97.792-72.192-72.192-97.28 70.144c-5.632 4.096-13.312 4.608-19.456 1.536-12.8-6.656-26.624-12.288-39.936-16.896-6.656-2.048-11.264-7.68-12.8-14.848l-19.456-118.272h-102.4L440.32 92.672c-1.024 6.656-6.144 12.288-12.8 14.848-13.312 4.096-26.112 9.728-38.4 15.872-6.144 3.072-13.824 2.56-19.456-1.536l-98.304-71.68-71.68 72.192 71.68 98.816c4.096 5.632 4.608 13.312 1.536 19.456-6.656 12.8-12.288 26.112-16.384 39.424-2.048 6.656-7.68 11.776-14.848 12.8l-120.32 18.944v102.4l120.32 18.944c7.168 1.024 12.8 6.144 14.848 12.8 4.608 13.824 10.24 27.136 16.896 39.936 3.072 6.144 2.56 13.824-1.536 19.456L199.168 604.16 271.36 676.352l100.864-73.216c5.632-4.096 13.312-4.608 19.456-1.536 11.776 6.144 24.576 11.264 36.864 15.36 6.656 2.048 11.264 7.68 12.8 14.848l19.456 122.88h102.4l19.456-122.368c1.024-7.168 6.144-12.8 12.8-14.848 13.312-4.096 26.112-9.728 38.4-15.872 6.144-3.072 13.824-2.56 19.456 1.536l99.328 71.68 71.68-72.704-71.68-99.328c-4.096-5.632-4.608-13.312-1.536-19.456 6.144-12.288 11.776-25.088 15.872-37.888 2.048-6.656 7.68-11.264 14.848-12.8l120.832-19.456-0.512-102.4z"  horiz-adv-x="1024" />

    
    <glyph glyph-name="icon-test" unicode="&#58919;" d="M509.065669 777.370159c-126.676098 0-229.770104-102.769618-229.770103-229.037417 0-93.252871 56.313563-173.46575 136.708591-209.238488-151.407362-45.205575-247.352551-184.313819-248.119007-328.572364 0-0.184195-0.083911-0.283456-0.083911-0.484024 0-0.082888 0.083911-0.184195 0.083911-0.267083 0-0.400113-0.083911-0.666172-0.083911-1.066285h0.283456c0.76748-9.032724 8.116865-16.266475 17.365506-16.266475 9.266038 0 16.715707 7.232728 17.382902 16.266475h0.283456c0 176.239933 142.042063 310.49873 318.847885 310.49873v0.666173c120.742968 6.658653 216.954217 106.46887 216.954217 228.462318-0.082888 126.268822-103.176894 229.03844-229.852992 229.03844z m0-422.960081c-107.194394 0-194.455807 86.970794-194.455806 193.83159 0 106.851587 87.261413 193.830567 194.455806 193.830567s194.454784-86.97898 194.454784-193.830567c0-106.860796-87.260389-193.83159-194.454784-193.83159zM850.429361 10.03889c0 0.199545-0.100284 0.400113-0.100284 0.566911-0.666172 105.161085-53.264111 213.721593-142.141324 277.183974l-0.184195-0.267083c-2.866281 1.899256-6.016017 3.333932-9.749039 3.333931-9.732665 0-17.648962-7.899924-17.648962-17.59882 0-5.533017 2.683109-10.299577 6.683213-13.533224l-0.199544-0.267083C767.184425 202.260819 815.015803 114.333234 815.015803 8.621611h0.282433c0.666172-9.049097 8.116865-16.281825 17.381879-16.281825 9.249665 0 16.699334 7.232728 17.366529 16.281825h0.282433c0 0.38374-0.082888 0.666172-0.082888 1.049912 0.082888 0.183172 0.183172 0.284479 0.183172 0.367367z"  horiz-adv-x="1024" />

    
    <glyph glyph-name="shouye" unicode="&#58974;" d="M979.792 491.423L574.183 812.057c-34.919 27.694-89.62 27.694-124.538 0L44.208 491.423c-13.934-11.01-16.17-31.135-5.333-44.896s30.619-16.17 44.552-5.332l12.557 10.32v-387.547c0-54.873 57.969-95.984 108.713-95.984h639.892c50.228 0 83.255 38.531 83.255 95.984V450.139l11.697-8.944c5.849-4.645 13.073-6.88 20.126-6.88 9.46 0 18.921 4.127 25.286 12.212 11.009 13.761 8.773 33.887-5.16 44.896zM479.92 31.973V209.492c0 8.772 15.998 13.245 31.995 13.245s31.995-4.473 31.995-13.245v-177.347l-63.99-0.172z m384.108 31.995c0-21.158-5.849-31.995-19.266-31.995H608.586c0 0.516-0.688 0.86-0.688 1.376V209.492c0 37.155-29.93 77.234-95.984 77.234s-95.984-40.08-95.984-77.234v-176.143c0-0.516 0.86-0.86 0.86-1.376H204.87c-20.126 0-44.724 17.374-44.724 31.995V502.26l328.72 259.569c11.868 9.289 33.198 9.289 44.895 0l330.095-261.117v-436.744z"  horiz-adv-x="1024" />

    
    <glyph glyph-name="huiyuan1" unicode="&#59026;" d="M877.909 593.715c-28.763 0-52.065-23.301-52.065-52.065 0-7.282 1.456-14.199 4.127-20.511l-169.665-70.39-119.299 204.982c13.593 9.467 22.452 25.122 22.452 42.841 0 28.763-23.301 52.065-52.065 52.065s-52.065-23.301-52.065-52.065c0-17.598 8.738-33.132 22.087-42.598l-132.406-205.104-154.738 69.298c2.913 6.554 4.611 13.714 4.611 21.36 0 28.763-23.301 52.065-52.065 52.065s-52.307-23.18-52.307-51.943c0-28.399 22.695-51.458 50.973-52.065l80.706-347.948c3.035-13.229 14.806-22.574 28.399-22.574h513.244c13.593 0 25.364 9.345 28.399 22.574l80.828 347.948h0.85c28.763 0 52.065 23.301 52.065 52.065s-23.301 52.065-52.065 52.065zM744.774 177.319h-467.005l-62.501 269.548 132.65-59.468c13.107-5.825 28.641-1.334 36.409 10.801l125.732 194.909 112.746-193.695c7.282-12.622 22.816-17.84 36.287-12.257l148.79 61.774-63.109-271.611zM762.371 76.345l-502.201-0.122c-16.142 0-29.127-12.986-29.127-29.127s12.986-29.127 29.127-29.127l502.201 0.122c16.142 0 29.127 12.986 29.127 29.127s-12.986 29.127-29.127 29.127z"  horiz-adv-x="1024" />

    
    <glyph glyph-name="shoucang" unicode="&#58922;" d="M512-30.5c-4.9 0-9.9 1.9-13.6 5.6L140.1 333.3c-106.3 106.3-106.3 279.2 0 385.5C242 820.7 405 824.9 512 731.5c107 93.4 270 89.1 371.9-12.7 106.3-106.3 106.3-279.2 0-385.5L525.6-24.9c-3.7-3.8-8.7-5.6-13.6-5.6zM332.9 760c-59.9 0-119.9-22.8-165.5-68.4-91.3-91.3-91.3-239.7 0-331L512 16l344.6 344.6c91.3 91.3 91.3 239.7 0 331s-239.7 91.3-331 0c-7.5-7.5-19.7-7.5-27.2 0-45.6 45.6-105.6 68.4-165.5 68.4z"  horiz-adv-x="1024" />

    
    <glyph glyph-name="fapiao1" unicode="&#58957;" d="M284.16 281.6h453.12c15.36 0 28.16 12.8 28.16 25.6 0 15.36-12.8 25.6-28.16 25.6h-453.12c-15.36 0-28.16-10.24-28.16-25.6 0-12.8 12.8-25.6 28.16-25.6zM281.6 435.2h460.8c12.8 0 25.6 12.8 25.6 25.6s-12.8 25.6-25.6 25.6h-460.8c-12.8 0-25.6-12.8-25.6-25.6s12.8-25.6 25.6-25.6zM281.6 588.8h460.8c12.8 0 25.6 12.8 25.6 25.6s-12.8 25.6-25.6 25.6h-460.8c-12.8 0-25.6-12.8-25.6-25.6s12.8-25.6 25.6-25.6zM870.4 793.6v-780.8c-15.36 7.68-33.28 12.8-51.2 12.8-38.4 0-71.68-20.48-89.6-51.2h-28.16c-17.92 30.72-51.2 51.2-89.6 51.2s-71.68-20.48-89.6-51.2h-28.16c-17.92 30.72-51.2 51.2-89.6 51.2s-71.68-20.48-89.6-51.2h-28.16c-17.92 30.72-51.2 51.2-89.6 51.2-17.92 0-35.84-5.12-51.2-12.8V793.6h724.48m25.6 51.2h-768c-15.36 0-25.6-10.24-25.6-25.6v-870.4c0-15.36 10.24-25.6 25.6-25.6h2.56c10.24 0 20.48 5.12 25.6 15.36 7.68 20.48 25.6 35.84 48.64 35.84s40.96-15.36 48.64-35.84c2.56-10.24 12.8-15.36 25.6-15.36h58.88c10.24 0 20.48 5.12 25.6 15.36 7.68 20.48 25.6 35.84 48.64 35.84s40.96-15.36 48.64-35.84c2.56-10.24 12.8-15.36 25.6-15.36h58.88c10.24 0 20.48 5.12 25.6 15.36 7.68 20.48 25.6 35.84 48.64 35.84s40.96-15.36 48.64-35.84c2.56-10.24 12.8-15.36 25.6-15.36h58.88c10.24 0 20.48 5.12 25.6 15.36 7.68 20.48 25.6 35.84 48.64 35.84s40.96-15.36 48.64-35.84c2.56-10.24 12.8-15.36 25.6-15.36h2.56c15.36 0 25.6 10.24 25.6 25.6v870.4c-7.68 15.36-17.92 25.6-33.28 25.6z"  horiz-adv-x="1024" />

    
    <glyph glyph-name="card" unicode="&#59370;" d="M211.2 132.79999999999995h601.6c20.8 0 36.8 16 36.8 36.8V598.4c0 20.8-16 36.8-36.8 36.8H211.2c-20.8 0-36.8-16-36.8-36.8v-428.8c0-20.8 17.6-36.8 36.8-36.8z m0 470.4h601.6c3.2 0 4.8-1.6 4.8-4.8v-36.8H206.4v36.8c0 3.2 3.2 4.8 4.8 4.8z m601.6-438.4H211.2c-3.2 0-4.8 1.6-4.8 4.8V451.2H816v-281.6c1.6-3.2-1.6-4.8-3.2-4.8z m4.8 302.4H206.4v80H816v-80zM276.8 256h216v-16H276.8zM276.8 321.6h216v-16H276.8z"  horiz-adv-x="1024" />

    
    <glyph glyph-name="bankcard_icon" unicode="&#58966;" d="M928.67 717.33h-833.34c-46.001-0.051-83.279-37.329-83.33-83.325l-0-500.005c0.051-46.001 37.329-83.279 83.325-83.33l833.345-0c46.001 0.051 83.279 37.329 83.33 83.325l0 500.005c-0.051 46.001-37.329 83.279-83.325 83.33zM95.33 661.78h833.34c15.334-0.017 27.759-12.446 27.77-27.779l0-138.891h-888.88v138.89c0.011 15.334 12.436 27.763 27.768 27.78zM928.67 106.22h-833.34c-15.334 0.017-27.759 12.446-27.77 27.779l-0 305.561h888.88v-305.56c-0.011-15.334-12.436-27.763-27.768-27.78zM123.11 217.33h55.56v-55.56h-55.56zM206.44 217.33h55.56v-55.56h-55.56zM289.78 217.33h55.56v-55.56h-55.56zM678.67 217.33h222.22v-55.56h-222.22z"  horiz-adv-x="1024" />

    
    <glyph glyph-name="gouwu2" unicode="&#58969;" d="M919.341-38.071l-36.953 580.079c-1.082 9.866-9.428 17.346-19.349 17.346H707.722v77.753c0 107.498-87.143 194.639-194.641 194.639-107.496 0-194.639-87.141-194.639-194.639v-77.753H164.12c-9.903 0-18.23-7.433-19.332-17.268l-40.201-583.902a19.459 19.459 0 0 1 4.808-15.157 19.465 19.465 0 0 1 14.522-6.503h776.491c0.152-0.01 0.284 0 0.38 0 10.76 0 19.464 8.718 19.464 19.464 0 2.073-0.323 4.069-0.911 5.941zM357.369 637.108c0 85.996 69.714 155.712 155.712 155.712s155.714-69.716 155.714-155.712v-77.753H357.369v77.753zM145.721-24.545l35.771 544.972h136.951v-44.252c-11.633-6.731-19.466-19.3-19.466-33.709 0-21.498 17.428-38.928 38.928-38.928 21.5 0 38.928 17.43 38.928 38.928 0 14.408-7.832 26.977-19.464 33.708v44.253h311.427v-44.252c-11.633-6.731-19.466-19.3-19.466-33.709 0-21.498 17.428-38.928 38.928-38.928s38.928 17.43 38.928 38.928c0 14.408-7.832 26.977-19.464 33.708v44.253H845.59l33.112-544.972H145.721z"  horiz-adv-x="1024" />

    
    <glyph glyph-name="shouye1" unicode="&#58928;" d="M422.63 4.179V272.288h178.74v-268.109h223.424V361.658h134.054L512 763.821 65.152 361.658h134.054V4.18H422.63z"  horiz-adv-x="1024" />

    
    <glyph glyph-name="fanhui" unicode="&#58916;" d="M710.153924 887.019603L266.007127 435.307476a81.118646 81.118646 0 0 1 0.861532-114.476097l446.192936-441.050666a26.922883 26.922883 0 0 1 37.853573 38.284339L304.722232 359.115718a27.27288 27.27288 0 0 0-0.323074 38.445877L748.545955 849.273722A26.922883 26.922883 0 1 1 710.180847 886.99268z"  horiz-adv-x="1024" />

    
    <glyph glyph-name="bofang" unicode="&#58917;" d="M512 896C230.4 896 0 665.6 0 384s230.4-512 512-512 512 230.4 512 512S793.6 896 512 896z m0-981.333333C253.866667-85.333333 42.666667 125.866667 42.666667 384S253.866667 853.333333 512 853.333333s469.333333-211.2 469.333333-469.333333-211.2-469.333333-469.333333-469.333333zM672 454.4l-170.666667 113.066667c-57.6 38.4-106.666667 12.8-106.666666-57.6v-256c0-70.4 46.933333-96 106.666666-57.6l170.666667 113.066666c57.6 42.666667 57.6 106.666667 0 145.066667z"  horiz-adv-x="1024" />

    
    <glyph glyph-name="zanting" unicode="&#58921;" d="M512-128C228.266667-128 0 100.266667 0 384S228.266667 896 512 896s512-228.266667 512-512-228.266667-512-512-512z m0 42.666667c260.266667 0 469.333333 209.066667 469.333333 469.333333S772.266667 853.333333 512 853.333333 42.666667 644.266667 42.666667 384s209.066667-469.333333 469.333333-469.333333z m-106.666667 682.666666c12.8 0 21.333333-8.533333 21.333334-21.333333v-384c0-12.8-8.533333-21.333333-21.333334-21.333333s-21.333333 8.533333-21.333333 21.333333V576c0 12.8 8.533333 21.333333 21.333333 21.333333z m213.333334 0c12.8 0 21.333333-8.533333 21.333333-21.333333v-384c0-12.8-8.533333-21.333333-21.333333-21.333333s-21.333333 8.533333-21.333334 21.333333V576c0 12.8 8.533333 21.333333 21.333334 21.333333z"  horiz-adv-x="1024" />

    
    <glyph glyph-name="jiantoushang" unicode="&#58924;" d="M910.222222 99.555556c-17.066667 0-34.133333 5.688889-45.511111 17.066666L551.822222 486.4c-11.377778 5.688889-17.066667 11.377778-34.133333 11.377778-5.688889 0-22.755556-5.688889-28.444445-11.377778l-329.955555-364.088889c-22.755556-22.755556-56.888889-22.755556-79.644445-5.688889-22.755556 22.755556-22.755556 56.888889-5.688888 79.644445l329.955555 364.088889c28.444444 34.133333 73.955556 51.2 119.466667 51.2s85.333333-22.755556 119.466666-56.888889l312.888889-364.088889c22.755556-22.755556 17.066667-56.888889-5.688889-79.644445-11.377778-5.688889-28.444444-11.377778-39.822222-11.377777z"  horiz-adv-x="1024" />

    
    <glyph glyph-name="jiantoushang1" unicode="&#58925;" d="M910.222222 99.555556c-17.066667 0-34.133333 5.688889-45.511111 17.066666L551.822222 486.4c-11.377778 5.688889-17.066667 11.377778-34.133333 11.377778-5.688889 0-22.755556-5.688889-28.444445-11.377778l-329.955555-364.088889c-22.755556-22.755556-56.888889-22.755556-79.644445-5.688889-22.755556 22.755556-22.755556 56.888889-5.688888 79.644445l329.955555 364.088889c28.444444 34.133333 73.955556 51.2 119.466667 51.2s85.333333-22.755556 119.466666-56.888889l312.888889-364.088889c22.755556-22.755556 17.066667-56.888889-5.688889-79.644445-11.377778-5.688889-28.444444-11.377778-39.822222-11.377777z"  horiz-adv-x="1024" />

    
    <glyph glyph-name="jiantouyou" unicode="&#58926;" d="M312.888889-99.555556c-17.066667 0-28.444444 5.688889-39.822222 17.066667-22.755556 22.755556-17.066667 56.888889 5.688889 79.644445l364.088888 329.955555c11.377778 11.377778 17.066667 22.755556 17.066667 34.133333 0 11.377778-5.688889 22.755556-17.066667 34.133334L273.066667 708.266667c-22.755556 22.755556-28.444444 56.888889-5.688889 79.644444 22.755556 22.755556 56.888889 28.444444 79.644444 5.688889l364.088889-312.888889c34.133333-28.444444 56.888889-73.955556 56.888889-119.466667s-17.066667-85.333333-51.2-119.466666l-364.088889-329.955556c-11.377778-5.688889-28.444444-11.377778-39.822222-11.377778z"  horiz-adv-x="1024" />

    
    <glyph glyph-name="jiantouxia" unicode="&#58927;" d="M517.688889 99.555556c-45.511111 0-85.333333 17.066667-119.466667 51.2L73.955556 514.844444c-22.755556 22.755556-17.066667 56.888889 5.688888 79.644445 22.755556 22.755556 56.888889 17.066667 79.644445-5.688889l329.955555-364.088889c5.688889-5.688889 17.066667-11.377778 28.444445-11.377778s22.755556 5.688889 34.133333 17.066667l312.888889 364.088889c22.755556 22.755556 56.888889 28.444444 79.644445 5.688889 22.755556-22.755556 28.444444-56.888889 5.688888-79.644445L637.155556 156.444444c-28.444444-39.822222-68.266667-56.888889-119.466667-56.888888 5.688889 0 0 0 0 0z"  horiz-adv-x="1024" />

    
    <glyph glyph-name="sousuo" unicode="&#58930;" d="M474.453333 11.946667c-225.28 0-409.6 184.32-409.6 409.6s184.32 409.6 409.6 409.6 409.6-184.32 409.6-409.6-184.32-409.6-409.6-409.6z m0 68.266666c187.733333 0 341.333333 153.6 341.333334 341.333334s-153.6 341.333333-341.333334 341.333333-341.333333-153.6-341.333333-341.333333 153.6-341.333333 341.333333-341.333334z m252.586667-54.613333c-13.653333 13.653333-10.24 37.546667 3.413333 47.786667s37.546667 10.24 47.786667-3.413334l64.853333-78.506666c13.653333-13.653333 10.24-37.546667-3.413333-47.786667s-37.546667-10.24-47.786667 3.413333l-64.853333 78.506667z"  horiz-adv-x="1024" />

    
    <glyph glyph-name="liulan" unicode="&#58932;" d="M614.4-128C276.48-128 0 97.28 0 384S276.48 896 614.4 896s614.4-225.28 614.4-512-276.48-512-614.4-512z m0 102.4c286.72 0 512 184.32 512 409.6s-225.28 409.6-512 409.6S102.4 609.28 102.4 384s225.28-409.6 512-409.6z m0 153.6c-143.36 0-256 112.64-256 256s112.64 256 256 256 256-112.64 256-256-112.64-256-256-256z m0 102.4c87.04 0 153.6 66.56 153.6 153.6s-66.56 153.6-153.6 153.6-153.6-66.56-153.6-153.6 66.56-153.6 153.6-153.6z"  horiz-adv-x="1228" />

    
    <glyph glyph-name="xuanzhong" unicode="&#58935;" d="M535.770344-121.621782c-51.025747 0-102.051494 19.134655-140.320804 63.782184L19.134655 356.744597C-6.378218 382.257471 0 420.526781 25.512874 446.039655s63.782184 19.134655 89.295057-6.378219l376.314885-414.584195c25.512874-25.512874 63.782184-25.512874 89.295057-6.378218l6.378218 6.378218L1326.669424 873.380286c25.512874 25.512874 63.782184 31.891092 89.295057 6.378219 25.512874-25.512874 31.891092-63.782184 6.378219-89.295058L676.091149-57.839598l-12.756437-12.756437c-38.26931-31.891092-82.916839-51.025747-127.564368-51.025747z"  horiz-adv-x="1466" />

    
    <glyph glyph-name="shoucang1" unicode="&#58889;" d="M512-63.799999999999955l-76.7 69-8.2 7.4C224.7 197.79999999999995 91 320.1 91 480.3c0 66.7 25.1 128.7 70.8 174.5s107.5 71 174.1 71c37.6 0 75.8-8.6 110.3-24.9 24.1-11.4 46.2-26.3 65.8-44.4 19.6 18.1 41.7 33 65.8 44.4 34.5 16.3 72.7 24.9 110.3 24.9 66.6 0 128.5-25.2 174.2-71C907.9 609 933 547 933 480.3c0-160.2-133.7-282.5-336.1-467.7l-8.2-7.5-76.7-68.9zM335.9 706.9c-61.6 0-118.7-23.3-160.8-65.5s-65.3-99.4-65.3-161.1c0-151.9 131.3-271.9 330-453.7l8.1-7.4 64.1-57.6 64 57.5 8.2 7.4c198.7 181.8 330 301.9 330 453.7 0 61.7-23.2 118.9-65.3 161.1s-99.2 65.5-160.8 65.5c-34.9 0-70.2-8-102.2-23.1-24.9-11.8-47.5-27.6-67.2-47l-6.6-6.5-6.6 6.5c-19.7 19.4-42.3 35.2-67.2 47-32.2 15.2-67.5 23.2-102.4 23.2zM512-70.5L423.6 9C220.3 195.10000000000002 86 317.9 86 480.3c0 68.1 25.7 131.3 72.3 178 46.6 46.7 109.7 72.5 177.6 72.5 38.4 0 77.3-8.8 112.4-25.4 23.2-11 44.6-25.1 63.7-42.2 19.1 17 40.5 31.2 63.7 42.2 35.1 16.6 74 25.4 112.4 25.4 68 0 131.1-25.7 177.7-72.5 46.5-46.7 72.2-110 72.2-178 0-162.4-134.3-285.2-337.6-471.3l-8.3-7.6-80.1-71.9zM335.9 720.8c-65.2 0-125.8-24.7-170.6-69.5-44.7-44.8-69.3-105.6-69.3-171 0-158 133-279.7 334.3-463.9l0.1-0.1 8.2-7.4 73.4-66 73.4 65.9 8.3 7.6C795 200.60000000000002 928 322.29999999999995 928 480.3c0 65.4-24.6 126.1-69.2 171-44.7 44.8-105.3 69.5-170.7 69.5-36.9 0-74.3-8.4-108.2-24.4-23.6-11.2-45.4-25.8-64.5-43.6l-3.4-3.1-3.4 3.1c-19.2 17.7-40.9 32.4-64.5 43.6-33.9 16-71.3 24.4-108.2 24.4zM512-45.10000000000002l-67.4 60.6-8.7 7.9C236.5 205.79999999999995 104.8 326.29999999999995 104.8 480.3c0 63 23.7 121.5 66.8 164.6 43.1 43.2 101.4 67 164.3 67 35.6 0 71.7-8.2 104.5-23.7 25.4-12 48.5-28.2 68.6-48l3.1-3 3.1 3c20.1 19.8 43.2 35.9 68.6 48 32.7 15.4 68.8 23.6 104.3 23.6 62.9 0 121.3-23.8 164.3-67 43.1-43.2 66.8-101.6 66.8-164.6 0-154-131.9-274.6-331.5-457.3l-0.1-0.1-8.2-7.4-67.4-60.5z m-176.1 747c-60.2 0-116.1-22.7-157.3-64-41.2-41.3-63.8-97.2-63.8-157.6 0-149.6 130.4-268.9 327.9-449.5l8.6-7.9 60.7-54.6 60.7 54.5 8.3 7.5c197.7 180.9 328.2 300.3 328.2 449.9 0 60.3-22.7 116.3-63.8 157.6-41.2 41.3-97 64-157.3 64-34.1 0-68.7-7.8-100.1-22.6-24.4-11.6-46.5-27.1-65.8-46l-10.1-10-10.1 10c-19.3 19-41.4 34.5-65.8 46-31.5 14.8-66.2 22.7-100.3 22.7z"  horiz-adv-x="1024" />

    
    <glyph glyph-name="tiaoshi" unicode="&#60257;" d="M544 507.488V800a32 32 0 0 1-64 0v-292.512c-55.104-14.272-96-63.904-96-123.488s40.896-109.216 96-123.488v-291.616c0-18.176 14.336-32.896 32-32.896s32 14.72 32 32.928v291.616c55.104 14.272 96 63.904 96 123.488s-40.896 109.184-96 123.456zM223.136 187.744C223.328 189.184 224 190.496 224 192V800a32 32 0 0 1-64 0v-608c0-1.504 0.672-2.816 0.864-4.256A127.744 127.744 0 0 1 64 64a128 128 0 0 1 256 0 127.744 127.744 0 0 1-96.864 123.744zM192 0a64 64 0 1 0 0.032 128.032A64 64 0 0 0 192 0zM960 704a128 128 0 0 1-256 0 127.744 127.744 0 0 1 96.864-123.744c-0.192-1.44-0.864-2.752-0.864-4.256v-608a32 32 0 0 1 64 0V576c0 1.504-0.672 2.816-0.864 4.256A127.744 127.744 0 0 1 960 704z m-128-64a64 64 0 1 0 0.032 128.032A64 64 0 0 0 832 640z"  horiz-adv-x="1024" />

    
    <glyph glyph-name="bianji" unicode="&#60258;" d="M880.288 663.52L560.192 850.88a95.648 95.648 0 0 1-96.64 0L143.68 663.52A96.64 96.64 0 0 1 96 580.096v-397.664c0-34.784 18.624-66.88 48.736-84l320-181.92a95.52 95.52 0 0 1 94.496 0l320 181.92A96.576 96.576 0 0 1 928 182.432V580.096a96.64 96.64 0 0 1-47.712 83.424zM864 182.432c0-11.584-6.208-22.304-16.256-28l-320-181.92a31.776 31.776 0 0 0-31.488 0l-320 181.92A32.192 32.192 0 0 0 160 182.432V580.096c0 11.456 6.048 22.048 15.904 27.808l319.872 187.36a31.84 31.84 0 0 0 32.192 0l320.128-187.392c9.856-5.728 15.904-16.32 15.904-27.776v-397.664zM512 576a192 192 0 1 1 0-384 192 192 0 0 1 0 384z m0-320a128 128 0 1 0 0 256 128 128 0 0 0 0-256z"  horiz-adv-x="1024" />

    
    <glyph glyph-name="guanbi" unicode="&#60266;" d="M548.992 392.256L885.44 728.672a31.968 31.968 0 1 1-45.248 45.248L503.744 437.504 167.328 773.92a31.968 31.968 0 1 1-45.248-45.248l336.416-336.416L122.08 55.84a31.968 31.968 0 1 1 45.248-45.248l336.416 336.416L840.16 10.56a31.968 31.968 0 1 1 45.248 45.248L548.992 392.256z"  horiz-adv-x="1024" />

    
    <glyph glyph-name="zidingyi" unicode="&#60267;" d="M727.008 408.768l194.016 184.32a99.2 99.2 0 0 1 0 140.288l-48.416 48.416a99.2 99.2 0 0 1-138.464 1.76L544.64 603.616l-184.064 196.64-1.504 1.568a64.832 64.832 0 0 1-91.712 0.384L129.184 664.032a64.8 64.8 0 0 1-1.12-90.144l181.344-193.728-171.456-162.88a99.264 99.264 0 0 1-28.256-49.28l-28.992-123.744a65.632 65.632 0 0 1 82.4-77.92l119.296 35.136a99.744 99.744 0 0 1 40.32 23.232l169.056 160.608 203.616-217.536 1.504-1.568a64.832 64.832 0 0 1 91.712-0.384l138.176 138.176a64.8 64.8 0 0 1 1.12 90.144l-200.896 214.624zM319.424 109.824l-90.112 90.112a31.488 31.488 0 0 1-9.792 6.496L667.104 631.648l94.272-94.272c1.408-1.408 3.168-2.08 4.768-3.168L319.424 109.824zM778.208 737.216a35.2 35.2 0 0 0 49.12-0.64l48.416-48.416c13.76-13.76 13.76-36.032-0.64-50.4l-64.448-61.216c-1.28 2.08-2.24 4.288-4.064 6.112l-93.12 93.12 64.736 61.44zM288.512 496.096c8 0.128 16 3.168 22.112 9.28l48 48a31.968 31.968 0 1 1-45.248 45.248l-48-48a31.68 31.68 0 0 1-8.928-20.256L174.816 617.6c-0.512 0.512-0.512 1.024-0.352 1.152L312.64 756.96c0.128 0.128 0.672 0.128 1.248-0.416l184.384-196.992-142.432-135.328-67.328 71.872zM145.024 27.712a1.6 1.6 0 0 0-2.016 1.92l28.992 123.744c0.992 4.16 2.944 7.968 5.312 11.488a31.808 31.808 0 0 1 6.752-10.144l88.288-88.288a35.072 35.072 0 0 0-8-3.552l-119.328-35.168z m598.336-16.672c-0.128-0.128-0.672-0.128-1.248 0.416l-125.6 134.176a31.232 31.232 0 0 1 14.08 7.712l48 48a31.968 31.968 0 1 1-45.248 45.248l-48-48a31.68 31.68 0 0 1-7.296-11.904l-39.904 42.656 142.432 135.328 200.576-214.304c0.48-0.512 0.48-1.024 0.352-1.152l-138.144-138.176z"  horiz-adv-x="1024" />

    
    <glyph glyph-name="icon_fabu" unicode="&#60296;" d="M166.464 447.296l212.64-128.736a32 32 0 1 0-33.152-54.72l-266.528 161.312a32 32 0 0 0 4.256 56.928l832 347.456a32 32 0 0 0 43.744-35.52l-145.76-768a32 32 0 0 0-48.576-21.056l-270.208 171.328a32 32 0 0 0 34.24 54.08l230.464-146.112L885.44 747.52 166.464 447.296zM416 263.904V0a32 32 0 0 0-64 0v278.624a32 32 0 0 0 11.2 24.32L752.192 636a32 32 0 0 0 41.6-48.64L416 263.936z"  horiz-adv-x="1024" />

    
    <glyph glyph-name="icon_tianjia" unicode="&#60297;" d="M512-96C246.912-96 32 118.912 32 384 32 649.088 246.912 864 512 864c265.088 0 480-214.912 480-480 0-265.088-214.912-480-480-480z m0 64c229.76 0 416 186.24 416 416S741.76 800 512 800 96 613.76 96 384s186.24-416 416-416zM256 352a32 32 0 0 0 0 64h512a32 32 0 0 0 0-64H256zM480 640a32 32 0 0 0 64 0v-512a32 32 0 0 0-64 0V640z"  horiz-adv-x="1024" />

    
    <glyph glyph-name="icon_yingyongguanli" unicode="&#60303;" d="M192 736a32 32 0 0 1-32-32v-192a32 32 0 0 1 32-32h192a32 32 0 0 1 32 32V704a32 32 0 0 1-32 32H192z m0 64h192a96 96 0 0 0 96-96v-192a96 96 0 0 0-96-96H192a96 96 0 0 0-96 96V704a96 96 0 0 0 96 96zM192 288a32 32 0 0 1-32-32v-192a32 32 0 0 1 32-32h192a32 32 0 0 1 32 32v192a32 32 0 0 1-32 32H192z m0 64h192a96 96 0 0 0 96-96v-192a96 96 0 0 0-96-96H192a96 96 0 0 0-96 96v192a96 96 0 0 0 96 96zM640 288a32 32 0 0 1-32-32v-192a32 32 0 0 1 32-32h192a32 32 0 0 1 32 32v192a32 32 0 0 1-32 32h-192z m0 64h192a96 96 0 0 0 96-96v-192a96 96 0 0 0-96-96h-192a96 96 0 0 0-96 96v192a96 96 0 0 0 96 96zM602.272 629.728a32 32 0 0 1 0-45.28l112-112a32 32 0 0 1 45.28 0l112 112a32 32 0 0 1 0 45.28l-112 112a32 32 0 0 1-45.28 0l-112-112z m-45.248 45.248l112 112a96 96 0 0 0 135.776 0l112-112a96 96 0 0 0 0-135.776l-112-112a96 96 0 0 0-135.776 0l-112 112a96 96 0 0 0 0 135.776z"  horiz-adv-x="1024" />

    
    <glyph glyph-name="icon_shiyongwendang" unicode="&#60305;" d="M288 576a32 32 0 1 0 0 64h448a32 32 0 0 0 0-64H288zM288 352a32 32 0 0 0 0 64h448a32 32 0 0 0 0-64H288zM288 128a32 32 0 0 0 0 64h128a32 32 0 0 0 0-64H288zM807.968 93.76a32 32 0 0 0 41.984-48.32l-153.856-133.6a32 32 0 0 0-20.992-7.84H195.04C140.16-96 96-50.624 96 4.928V763.072C96 818.624 140.16 864 195.04 864h633.92C883.84 864 928 818.624 928 763.072v-564.32a32 32 0 1 0-64 0V763.072C864 783.68 848.096 800 828.96 800H195.04C175.904 800 160 783.68 160 763.072v-758.144C160-15.68 175.904-32 195.04-32h468.096l144.832 125.76zM704-63.136a32 32 0 1 0-64 0v186.24C640 178.592 684.16 224 739.04 224h157.632a32 32 0 0 0 0-64h-157.632c-19.136 0-35.04-16.32-35.04-36.928v-186.24z"  horiz-adv-x="1024" />

    
    <glyph glyph-name="dakai" unicode="&#60383;" d="M275.84 736H124.192l1.824-580.096a32 32 0 0 0-64 0L60.16 736a64 64 0 0 0 64 64h177.92l97.28-96h498.272a32 32 0 1 0 0-64H373.152l-97.28 96zM127.52 160.384a32 32 0 0 0-63.04 10.944l54.624 314.144C127.904 536.064 174.784 576 225.76 576h668.864c55.36 0 93.92-46.72 84.384-101.472l-72.32-416C897.824 7.936 850.976-32 800-32H160a32 32 0 0 0 0 64h640c19.712 0 40.096 17.376 43.616 37.472l72.32 416c2.784 15.904-5.984 26.528-21.312 26.528H225.76c-19.68 0-40.096-17.376-43.584-37.472l-54.656-314.144z"  horiz-adv-x="1024" />

    
    <glyph glyph-name="shangyibu" unicode="&#60399;" d="M512-96C246.912-96 32 118.912 32 384 32 649.088 246.912 864 512 864c265.088 0 480-214.912 480-480 0-265.088-214.912-480-480-480z m0 64c229.76 0 416 186.24 416 416S741.76 800 512 800 96 613.76 96 384s186.24-416 416-416zM336 416a32 32 0 0 1 0-64h416a32 32 0 0 1 0 64h-416zM316.928 384l151.36 170.784a32 32 0 1 1-47.872 42.432l-170.208-192a32 32 0 0 1 0-42.432l170.24-192a32 32 0 1 1 47.872 42.432L316.928 384z"  horiz-adv-x="1024" />

    
    <glyph glyph-name="shuaxin" unicode="&#60424;" d="M960 480V704l-73.056-73.056a447.712 447.712 0 0 1-373.6 201.088C265.92 832.032 65.312 631.456 65.312 384S265.92-64.032 513.344-64.032a448.064 448.064 0 0 1 415.232 279.488 38.368 38.368 0 1 1-71.136 28.896 371.36 371.36 0 0 0-344.096-231.584C308.32 12.768 142.112 178.976 142.112 384S308.32 755.232 513.344 755.232c132.448 0 251.936-70.08 318.016-179.84L736 480h224z"  horiz-adv-x="1024" />

    
    <glyph glyph-name="shangyibu1" unicode="&#60425;" d="M995.648 436.704C684.448 614.432 406.08 577.344 171.232 328.096L32 480v-384h352l-160.736 175.328c211.168 227.072 452.192 259.776 734.304 98.688a38.4 38.4 0 0 1 38.08 66.688z"  horiz-adv-x="1024" />

    
    <glyph glyph-name="shouye_huaban_huaban" unicode="&#58918;" d="M976.213333 445.44l-443.733333 375.466667c-13.653333 10.24-30.72 10.24-44.373333 0l-443.733334-375.466667c-13.653333-13.653333-17.066667-34.133333-3.413333-47.786667 13.653333-13.653333 34.133333-17.066667 47.786667-3.413333l13.653333 6.826667V-25.6c0-20.48 13.653333-34.133333 34.133333-34.133333h750.933334c20.48 0 34.133333 13.653333 34.133333 34.133333V401.066667l13.653333-10.24c6.826667-6.826667 13.653333-6.826667 20.48-6.826667 10.24 0 20.48 3.413333 27.306667 13.653333 10.24 13.653333 10.24 34.133333-6.826667 47.786667zM580.266667 8.533333h-136.533334v136.533334h136.533334v-136.533334z m273.066666 443.733334v-443.733334h-204.8v170.666667c0 20.48-13.653333 34.133333-34.133333 34.133333h-204.8c-20.48 0-34.133333-13.653333-34.133333-34.133333v-170.666667H170.666667V452.266667v6.826666l341.333333 290.133334 341.333333-290.133334v-6.826666z"  horiz-adv-x="1024" />

    
    <glyph glyph-name="ic_invoice" unicode="&#58892;" d="M810.656 768v-695.456L768 102.4l-46.944-29.856L640 17.088l-81.056 55.456L512 102.4l-46.944-29.856L384 17.088l-81.056 55.456L256 102.4l-42.656-29.856V768h597.344zM896 853.344H128v-938.656l128 85.344 128-85.344 128 85.344 128-85.344 128 85.344 128-85.344V853.344zM298.656 469.344h426.656V384H298.656v85.344zM298.656 597.344h426.656V512H298.656V597.344zM298.656 341.344h256V256h-256v85.344z"  horiz-adv-x="1024" />

    
    <glyph glyph-name="gengduo" unicode="&#60444;" d="M224 384m-80 0a80 80 0 1 1 160 0 80 80 0 1 1-160 0ZM512 384m-80 0a80 80 0 1 1 160 0 80 80 0 1 1-160 0ZM800 384m-80 0a80 80 0 1 1 160 0 80 80 0 1 1-160 0Z"  horiz-adv-x="1024" />

    
    <glyph glyph-name="gouwu3" unicode="&#58915;" d="M512.00472249 692.98993489c-25.46079491 0-47.22359516-9.06206551-65.24884947-27.19114062-18.02525431-18.12907511-27.0428252-39.96108898-27.0428252-65.50592907v-30.89902274h184.57346115v30.89902274c0 25.54484008-9.01757089 47.37685395-27.04282521 65.50592907s-39.78805383 27.19114063-65.23896127 27.19114062z m215.31428102-587.08143942V507.59579623h-430.65822512v-401.68730076c0-8.55284969 3.0157444-15.76097378 9.01262679-21.83695797 6.03148956-5.97216338 13.26927673-9.06206551 21.76280024-9.06206551h369.12714594c8.50341097 0 15.73131069 3.08990213 21.77268769 9.06206551 5.98699492 6.08092755 9.01262679 13.28905163 9.01262753 21.83695798h-0.02966308zM511.99977839 754.78798111c20.80863813 0 40.73232848-4.11822196 59.72163239-12.35960925 19.00413543-8.13756649 35.34848274-19.15739422 49.02809785-32.85678569 13.66972766-13.79826746 24.63022923-30.28104275 32.83206598-49.33461618a150.29284878 150.29284878 0 0 0 12.22612535-59.94410479v-30.89902274H788.85502602v-463.48534699c0-25.54484008-9.01262679-47.37685395-27.04282519-65.50592906-18.01536614-18.12907511-39.78311047-27.19114063-65.24884947-27.19114063H327.43620543c-25.45090746 0-47.22359516 9.06206551-65.24884946 27.19114063C244.1571583 58.531640779999975 235.14453148 80.36365465999995 235.14453148 105.90849547000005V569.39384245h123.04238199v30.89902274c0 20.91245893 4.07372733 40.88558729 12.23601281 59.9441048 8.17217365 19.15739422 19.10301213 35.53634872 32.83206597 49.33956026 13.69444739 13.69444739 30.02396316 24.71921848 49.0182104 32.85184161A148.47845789 148.47845789 0 0 0 511.99977839 754.78798111z"  horiz-adv-x="1024" />

    
    <glyph glyph-name="shuaqiaqiapianyinhangqia" unicode="&#58920;" d="M921.7 741.1c28.2 0 51.2-23 51.2-51.2v-612c0-28.2-23-51.2-51.2-51.2H102.5c-28.2 0-51.2 23-51.2 51.2v612c0 28.2 23 51.2 51.2 51.2h819.2m0 51.2H102.5C46 792.3 0.1 746.4 0.1 689.9v-612c0-56.6 45.8-102.4 102.4-102.4H921.7c56.6 0 102.4 45.8 102.4 102.4v612c0 56.5-45.8 102.4-102.4 102.4zM925.8 638.7h-88.4l-76.8-204.8H849l76.8 204.8zM177.2 485.1H126v-51.2h51.2v51.2zM279.6 485.1h-51.2v-51.2h51.2v51.2zM976.3 215.5H46.6v-51.2h929.7v51.2zM382 485.1h-51.2v-51.2H382v51.2zM666.7 638.7h-51.2l-76.8-204.8h51.2l76.8 204.8zM767.3 638.7h-51.2l-76.8-204.8h51.2l76.8 204.8z"  horiz-adv-x="1024" />

    
    <glyph glyph-name="shoucang2" unicode="&#58899;" d="M707.584 802.816c-77.312 0-148.992-38.912-196.608-102.912-47.104 64-119.296 102.912-196.608 102.912-139.264 0-252.416-123.904-252.416-275.968 0-90.624 40.448-154.624 73.216-205.824C229.888 172.032 468.48-12.8 478.72-20.48c9.728-7.68 20.992-11.264 32.256-11.264s22.528 3.584 32.256 11.264c10.24 7.68 248.32 193.024 343.552 341.504 32.768 51.2 73.216 115.2 73.216 205.824 0 152.064-113.152 275.968-252.416 275.968zM821.76 322.56c-87.552-122.88-272.896-263.168-282.112-269.824-8.704-6.656-18.944-10.24-28.672-10.24-10.24 0-19.968 3.072-28.672 10.24-9.216 6.656-190.976 148.48-282.112 274.944-29.184 46.08-75.776 103.424-75.776 184.32 0 136.192 75.776 231.936 200.192 231.936 69.12 0 144.384-66.048 186.368-123.392 42.496 57.344 117.248 123.392 186.368 123.392 124.928 0 205.824-95.744 205.824-231.936 0-80.896-51.712-143.872-81.408-189.44z"  horiz-adv-x="1024" />

    
    <glyph glyph-name="huiyuan2" unicode="&#58934;" d="M275.75296 520.12032c47.435776-21.276672 93.784064-41.883648 139.917312-62.959616 6.600704-3.014656 8.292352 0.57344 10.960896 4.722688 25.07776 39.008256 50.219008 77.973504 75.350016 116.946944 13.30176 20.627456 26.624 41.244672 40.42752 62.629888-12.288 8.359936-23.607296 18.307072-21.547008 34.37568 1.042432 8.1408 5.400576 17.18272 11.075584 23.130112 12.515328 13.123584 34.709504 11.17184 46.538752-2.433024 14.450688-16.61952 10.15808-35.055616-13.408256-55.126016l107.255808-186.845184 158.928896 66.060288c-1.759232 4.696064-3.47136 8.677376-4.753408 12.791808-5.830656 18.726912 5.629952 38.443008 24.580096 42.471424 17.913856 3.807232 36.800512-9.146368 39.380992-27.017216 2.859008-19.761152-10.766336-37.535744-30.53568-37.967872-8.998912-0.196608-12.058624-3.23584-13.969408-11.634688-21.090304-92.606464-42.600448-185.116672-63.936512-277.665792-4.296704-18.6368-5.926912-20.043776-25.43616-20.043776-135.84384-0.004096-271.68768-0.004096-407.53152 0-18.931712 0-21.211136 2.000896-25.483264 20.424704-21.604352 93.184-43.368448 186.333184-64.78848 279.560192-1.472512 6.41024-3.557376 8.966144-10.483712 9.216-15.6672 0.5632-27.643904 10.93632-30.80192 25.23136a32.708608 32.708608 0 0 0 15.2064 35.196928c12.35968 7.350272 27.16672 6.230016 38.191104-2.893824 11.286528-9.336832 15.024128-24.993792 9.232384-39.02464-1.150976-2.78528-2.594816-5.451776-4.370432-9.146368z m15.931392-37.61152c1.959936-8.456192 3.92192-16.912384 5.87776-25.370624 1.941504-8.3968 3.887104-16.791552 5.8368-25.186304 1.937408-8.35584 3.864576-16.713728 5.808128-25.06752 1.93536-8.316928 3.844096-16.64 5.783552-24.95488 1.933312-8.286208 3.835904-16.57856 5.76512-24.866816a16726.40512 16726.40512 0 0 0 5.74464-24.7808c1.906688-8.2432 3.844096-16.482304 5.730304-24.731648 1.880064-8.23296 3.856384-16.443392 5.71392-24.682496 1.855488-8.235008 3.86048-16.4352 5.701632-24.674304 0.9216-4.122624 1.918976-8.226816 2.842624-12.345344 0.927744-4.139008 1.8432-8.296448 2.809856-12.423168 0.270336-1.155072 0.393216-2.62144 1.42336-3.371008 1.210368-0.884736 2.94912-0.745472 4.370432-0.745472 130.996224-0.036864 261.992448 0.004096 392.986624-0.208896 6.828032-0.012288 8.460288 3.127296 9.766912 8.779776 16.166912 69.943296 32.54272 139.843584 48.809984 209.764352 2.633728 11.32544 5.003264 22.710272 7.837696 35.61472-5.08928-2.062336-8.208384-3.301376-11.307008-4.585472-40.56064-16.80384-81.117184-33.605632-121.67168-50.423808-19.396608-8.042496-21.520384-7.30112-32.29696 11.27424a313493.446656 313493.446656 0 0 1-90.796032 156.45696c-1.773568 3.053568-3.794944 5.965824-6.209536 9.742336-20.103168-31.019008-39.376896-60.751872-58.64448-90.486784-17.604608-27.170816-35.151872-54.378496-52.82816-81.502208-7.415808-11.380736-11.649024-12.589056-23.771136-7.323648-5.931008 2.576384-11.814912 5.265408-17.7152 7.909376l-107.569152 48.18944zM552.947712 125.999104c-33.42336 0-66.844672-0.423936-100.265984-0.489472-33.67936-0.067584-67.377152 0.176128-101.052416-0.026624-9.271296-0.055296-18.538496 0.503808-27.803648 0.395264-5.486592-0.063488-11.542528-0.544768-16.623616 1.953792-5.695488 2.801664-8.091648 10.293248-7.487488 16.357376 0.6144 6.191104 5.695488 11.649024 12.60544 13.498368 3.383296 0.905216 7.03488 0.84992 10.510336 0.84992 153.479168 0.012288 306.958336 0.016384 460.439552 0 14.995456 0 21.532672-7.692288 21.788672-14.667776 0.251904-6.785024-2.648064-12.128256-6.895616-14.85824-5.30432-3.407872-10.991616-3.01056-17.035264-3.01056l-228.179968-0.002048z"  horiz-adv-x="1024" />

    
    <glyph glyph-name="gouwu4" unicode="&#59317;" d="M317.170526-10.778947a6.467368 6.467368 0 0 1-2.425263 5.52421 26.947368 26.947368 0 0 1-8.353684 4.176842 64.134737 64.134737 0 0 0-18.863158 8.488421 15.764211 15.764211 0 0 0-6.063158 13.473685 16.168421 16.168421 0 0 0 7.27579 13.473684 31.797895 31.797895 0 0 0 18.458947 5.12 28.564211 28.564211 0 0 0 18.324211-5.658948 17.785263 17.785263 0 0 0 6.871578-14.821052h-15.225263a8.892632 8.892632 0 0 1-2.694737 6.602105 10.778947 10.778947 0 0 1-7.545263 2.425263 11.722105 11.722105 0 0 1-7.275789-2.021052 6.197895 6.197895 0 0 1-3.233684-5.793685 5.254737 5.254737 0 0 1 2.694736-4.715789 48.101053 48.101053 0 0 1 10.105264-4.446316 48.101053 48.101053 0 0 0 17.111579-8.353684 17.111579 17.111579 0 0 0 5.793684-13.473684 16.168421 16.168421 0 0 0-6.871579-13.473685 30.989474 30.989474 0 0 0-18.189474-4.985263 34.357895 34.357895 0 0 0-19.806316 5.793684 18.324211 18.324211 0 0 0-8.08421 16.437895h15.090526a10.105263 10.105263 0 0 1 3.098948-8.218947 15.629474 15.629474 0 0 1 9.566315-2.56 10.778947 10.778947 0 0 1 7.141053 2.021052 6.063158 6.063158 0 0 1 3.098947 4.985264zM397.069474-28.564211h-15.494737v26.947369h-24.926316v-26.947369h-15.494737v67.368422h15.494737v-28.025264h24.926316v27.75579h15.494737zM463.090526-0.943158a28.025263 28.025263 0 0 0-7.949473-20.48 26.947368 26.947368 0 0 0-20.48-8.08421 26.947368 26.947368 0 0 0-28.564211 28.56421v11.991579a28.564211 28.564211 0 1 0 56.993684 0z m-15.629473 12.126316a19.132632 19.132632 0 0 1-2.829474 11.722105 12.261053 12.261053 0 0 1-19.132632 0 18.593684 18.593684 0 0 1-3.368421-11.722105v-12.126316a19.671579 19.671579 0 0 1 3.368421-11.991579 11.587368 11.587368 0 0 1 9.701053-4.581052 11.183158 11.183158 0 0 1 9.431579 4.581052 19.671579 19.671579 0 0 1 3.368421 11.991579zM487.612632-5.524211v-23.04H471.578947v67.368422h26.947369a27.890526 27.890526 0 0 0 18.863158-6.063158 20.075789 20.075789 0 0 0 8.08421-16.303158 19.806316 19.806316 0 0 0-7.006316-15.898948 27.890526 27.890526 0 0 0-18.863157-6.063158z m0 11.991579h11.722105a9.970526 9.970526 0 0 1 7.68 2.829474 9.701053 9.701053 0 0 1 2.694737 7.141053 10.374737 10.374737 0 0 1-2.694737 7.275789 9.970526 9.970526 0 0 1-7.68 2.829474h-11.722105zM549.591579-5.524211v-23.04h-15.629474v67.368422h26.947369a26.947368 26.947368 0 0 0 18.863158-6.063158 20.075789 20.075789 0 0 0 7.006315-16.033685 19.806316 19.806316 0 0 0-7.006315-15.898947 26.947368 26.947368 0 0 0-18.863158-6.063158z m0 11.991579h11.587368a9.970526 9.970526 0 0 1 7.68 2.829474 9.701053 9.701053 0 0 1 2.694737 7.141053 10.374737 10.374737 0 0 1-2.694737 7.275789 9.970526 9.970526 0 0 1-7.68 2.829474h-11.587368zM612.378947-28.564211H596.884211v67.368422h15.494736zM679.882105-28.564211h-15.494737l-24.522105 42.846316v-42.711579h-15.898947v67.368421h15.629473l24.522106-42.711579v42.307369h15.494737zM743.477895-19.267368a29.237895 29.237895 0 0 0-9.970527-7.141053 38.265263 38.265263 0 0 0-16.303157-3.098947 27.755789 27.755789 0 0 0-20.210527 7.68 26.947368 26.947368 0 0 0-7.68 19.806315v13.473685a26.947368 26.947368 0 0 0 7.545263 19.806315 26.947368 26.947368 0 0 0 19.536842 7.68 26.947368 26.947368 0 0 0 19.402106-5.928421 23.983158 23.983158 0 0 0 7.275789-16.303158h-14.686316a14.416842 14.416842 0 0 1-3.368421 8.084211 11.183158 11.183158 0 0 1-8.08421 2.56 10.24 10.24 0 0 1-8.757895-4.311579 16.842105 16.842105 0 0 1-3.368421-11.048421v-14.147368a18.054737 18.054737 0 0 1 3.233684-11.183158 10.913684 10.913684 0 0 1 9.162106-4.311579 28.025263 28.025263 0 0 1 6.736842 0 11.722105 11.722105 0 0 1 3.907368 1.886315v10.644211h-10.509474v10.24h26.138948zM202.105263 774.736842h512v-525.473684a40.421053 40.421053 0 0 0-40.421052-40.421053H242.526316a40.421053 40.421053 0 0 0-40.421053 40.421053V774.736842zM673.684211 208.842105H242.526316a40.421053 40.421053 0 0 0-40.421053 40.421053v80.842105h512v-80.842105a40.421053 40.421053 0 0 0-40.421052-40.421053zM417.684211 613.052632h404.210526v-377.263158a26.947368 26.947368 0 0 0-26.947369-26.947369H444.631579a26.947368 26.947368 0 0 0-26.947368 26.947369zM821.894737 303.157895v-67.368421a26.947368 26.947368 0 0 0-26.947369-26.947369H444.631579a26.947368 26.947368 0 0 0-26.947368 26.947369v94.315789a64.404211 64.404211 0 0 0 40.421052-13.473684 67.368421 67.368421 0 0 1 80.842105 0 67.368421 67.368421 0 0 0 80.842106 0 67.368421 67.368421 0 0 1 80.842105 0 67.368421 67.368421 0 0 0 80.842105 0 64.404211 64.404211 0 0 1 40.421053-13.473684z"  horiz-adv-x="1024" />

    
    <glyph glyph-name="xiaoxitongzhi" unicode="&#60469;" d="M896 768H128a64 64 0 0 1-64-64v-672a64 64 0 0 1 64-64h768a64 64 0 0 1 64 64V704a64 64 0 0 1-64 64z m0-64v-117.664l-377.44-255.296L128 595.232V704h768zM128 32V517.952l372.64-252.032a31.968 31.968 0 0 1 35.84 0L896 509.088V32H128z"  horiz-adv-x="1024" />

    
    <glyph glyph-name="xiaoxi" unicode="&#60475;" d="M864 832H160C107.072 832 64 788.928 64 736v-608c0-52.928 43.072-96 96-96h61.92v-123.232L443.84 32H864c52.928 0 96 43.072 96 96V736c0 52.928-43.072 96-96 96z m32-704a32 32 0 0 0-32-32H443.84c-10.912 0-21.664-2.816-31.072-8.064l-126.88-70.4V32c0 35.296-28.704 64-64 64H160c-17.632 0-32 14.336-32 32V736c0 17.632 14.368 32 32 32h704c17.664 0 32-14.368 32-32v-608zM640 376H256a32 32 0 1 1 0-64h384a32 32 0 1 1 0 64zM768 600H256a32 32 0 0 1 0-64h512a32 32 0 1 1 0 64z"  horiz-adv-x="1024" />

    
    <glyph glyph-name="Wi-Fi" unicode="&#60491;" d="M512 96m-96 0a96 96 0 1 1 192 0 96 96 0 1 1-192 0ZM748.096 394.56a324.608 324.608 0 0 1-230.272 95.36c-87.52 0-169.6-34.72-230.272-95.36a326.72 326.72 0 0 1-42.464-52.256 32 32 0 1 1 53.568-35.008 263.616 263.616 0 0 0 34.144 41.984 260.704 260.704 0 0 0 185.024 76.64c70.368 0 136.224-27.872 184.992-76.64 12.8-12.8 24.256-26.88 34.144-42.016a32 32 0 0 1 53.568 35.008 325.024 325.024 0 0 1-42.432 52.288zM991.776 511.424a569.824 569.824 0 0 1-73.792 90.816C812.544 707.68 669.92 768 517.824 768S223.072 707.68 117.664 602.24a568.416 568.416 0 0 1-73.792-90.816 32 32 0 0 1 53.568-35.008 505.76 505.76 0 0 0 65.472 80.608C256.448 650.528 382.88 704 517.824 704s261.344-53.472 354.912-147.008a502.944 502.944 0 0 0 65.472-80.608 32 32 0 1 1 53.568 35.04z"  horiz-adv-x="1024" />

    
    <glyph glyph-name="fapiao2" unicode="&#58909;" d="M170.667 27.307l98.346 94.72a21.333 21.333 0 0 0 30.72-1.174l98.176-110.122 98.176 110.122a21.333 21.333 0 0 0 31.83 0l98.176-110.122 98.176 110.122a21.333 21.333 0 0 0 30.72 1.174l98.346-94.72V768H170.667v-740.693zM128-22.08V789.29c0 11.82 9.707 21.377 21.333 21.377h725.334c11.776 0 21.333-9.643 21.333-21.184V-22.06a21.333 21.333 0 0 0-36.117-16.149L741.376 75.925l-99.35-111.445a21.333 21.333 0 0 0-31.85 0L512 74.603 413.824-35.52a21.333 21.333 0 0 0-31.85 0l-99.35 111.445-118.485-114.133A21.333 21.333 0 0 0 128-22.08zM298.667 576c0 11.776 9.493 21.333 21.184 21.333h341.632c11.69 0 21.184-9.472 21.184-21.333 0-11.776-9.494-21.333-21.184-21.333H319.85A21.205 21.205 0 0 0 298.667 576z m0-128c0 11.776 9.6 21.333 21.482 21.333h255.702c11.861 0 21.482-9.472 21.482-21.333 0-11.776-9.6-21.333-21.482-21.333H320.149A21.355 21.355 0 0 0 298.667 448z m0-128c0 11.776 9.6 21.333 21.482 21.333h255.702c11.861 0 21.482-9.472 21.482-21.333 0-11.776-9.6-21.333-21.482-21.333H320.149A21.355 21.355 0 0 0 298.667 320z"  horiz-adv-x="1024" />

    
    <glyph glyph-name="shouhuodizhi-" unicode="&#58949;" d="M495.4 597.3c-92.7 0-168.1-75.4-168.1-168.1s75.4-168.1 168.1-168.1 168.1 75.4 168.1 168.1-75.4 168.1-168.1 168.1z m0-276.1c-59.6 0-108.1 48.5-108.1 108.1s48.5 108.1 108.1 108.1c59.6 0 108.1-48.5 108.1-108.1S555 321.2 495.4 321.2zM843.3 576.2c-19 45-46.2 85.3-80.9 120s-75 61.9-120 80.9c-46.6 19.7-96 29.7-147 29.7s-100.4-10-147-29.7c-45-19-85.3-46.2-120-80.9s-61.9-75-80.9-120c-19.7-46.6-29.7-96-29.7-147 0-49.7 13.1-102.7 38.8-157.6 21.3-45.3 51.4-92.3 89.5-139.7C325.7 33 413.6-36 438.7-54.7c16.2-12.1 36.8-18.2 57.3-18.2 20.7 0 41.3 6.2 57.2 18.5 33.5 25.9 119.2 96.2 193.1 188.2C830.3 238.5 873 337.9 873 429.3c0 50.9-10 100.4-29.7 146.9zM516.4-6.9c-10.2-7.9-30.9-7.8-41.7 0.3-48.7 36.5-122.1 102-181.8 176.2-75.3 93.6-115.1 183.4-115.1 259.7 0 175.1 142.5 317.6 317.6 317.6S813 604.4 813 429.3c0-196.4-247.1-397.9-296.6-436.2z"  horiz-adv-x="1024" />

    
    <glyph glyph-name="wuxupailie" unicode="&#60544;" d="M288 736h640v-96H288zM288 432h640v-96H288zM288 128h640v-96H288zM160 688m-64 0a64 64 0 1 1 128 0 64 64 0 1 1-128 0ZM160 384m-64 0a64 64 0 1 1 128 0 64 64 0 1 1-128 0ZM160 80m-64 0a64 64 0 1 1 128 0 64 64 0 1 1-128 0Z"  horiz-adv-x="1024" />

    
    <glyph glyph-name="yinhangqia" unicode="&#59021;" d="M51.2 537.6h921.6V640a51.2 51.2 0 0 1-51.2 51.2H102.4a51.2 51.2 0 0 1-51.2-51.2v-102.4z m0-51.2v-358.4a51.2 51.2 0 0 1 51.2-51.2h819.2a51.2 51.2 0 0 1 51.2 51.2V486.4H51.2z m51.2 256h819.2a102.4 102.4 0 0 0 102.4-102.4v-512a102.4 102.4 0 0 0-102.4-102.4H102.4a102.4 102.4 0 0 0-102.4 102.4V640a102.4 102.4 0 0 0 102.4 102.4z m25.6-563.2h358.4a25.6 25.6 0 1 0 0-51.2h-358.4a25.6 25.6 0 1 0 0 51.2z m460.8 0h51.2a25.6 25.6 0 1 0 0-51.2h-51.2a25.6 25.6 0 1 0 0 51.2z"  horiz-adv-x="1024" />

    
    <glyph glyph-name="shexiangtou" unicode="&#60581;" d="M907.712 253.408l-2.624 302.592-204.256-145.056 206.88-157.536z m-39.68 354.784a64 64 0 0 0 101.056-51.648l2.624-302.592a64 64 0 0 0-102.752-51.456l-206.912 157.536a64 64 0 0 0 1.728 103.104l204.256 145.056zM144 640a32 32 0 0 1-32-32v-417.376a32 32 0 0 1 32-32h456.32a32 32 0 0 1 32 32V608a32 32 0 0 1-32 32H144z m0 64h456.32a96 96 0 0 0 96-96v-417.376a96 96 0 0 0-96-96H144a96 96 0 0 0-96 96V608a96 96 0 0 0 96 96z"  horiz-adv-x="1024" />

    
    <glyph glyph-name="shengyinkai" unicode="&#60582;" d="M128 475.424v-200.864h149.12l175.456-140.064V611.712l-169.792-136.288H128z m132.256 64l204.288 163.968a32 32 0 0 0 52.032-24.96v-610.432a32 32 0 0 0-51.968-24.992l-209.92 167.552H96a32 32 0 0 0-32 32v264.864a32 32 0 0 0 32 32h164.256zM670.784 175.872a32 32 0 0 0-44.832 45.664 214.08 214.08 0 0 1 64.32 153.312 213.92 213.92 0 0 1-55.776 144.448 32 32 0 1 0 47.36 43.04 277.92 277.92 0 0 0 72.416-187.488 278.08 278.08 0 0 0-83.488-198.976zM822.912 37.12a32 32 0 1 0-45.888 44.608A419.008 419.008 0 0 1 896 374.848c0 108.704-41.376 210.848-114.432 288.384a32 32 0 0 0 46.592 43.872c84.16-89.28 131.84-207.04 131.84-332.256 0-127.84-49.76-247.904-137.088-337.728z"  horiz-adv-x="1024" />

    
    <glyph glyph-name="shoucang3" unicode="&#60583;" d="M512 175.584l232.096-171.904a19.2 19.2 0 0 1 16.864-2.88c9.536 2.88 14.592 12.224 11.84 20.864l-88.96 281.6 237.344 176.96a16.48 16.48 0 0 1 6.816 13.152c0 9.152-7.904 16.928-18.112 16.96l-292 0.448-88.48 277.12a17.568 17.568 0 0 1-11.776 11.264c-9.856 2.976-20.16-2.304-23.04-11.264l-88.48-277.12-292-0.48a18.624 18.624 0 0 1-14.624-6.944 16.096 16.096 0 0 1 3.328-23.136l237.376-176.96-88.992-281.6a15.904 15.904 0 0 1 2.72-14.688c6.048-7.744 17.856-9.312 25.984-3.296L512 175.584z m-194.016-223.36a83.008 83.008 0 0 0-114.56 15.424 79.904 79.904 0 0 0-13.28 73.28l75.296 238.24-200.864 149.76a80.096 80.096 0 0 0-15.424 113.92 82.624 82.624 0 0 0 64.864 31.456l245.312 0.384 74.304 232.672c13.6 42.56 59.52 66.112 102.56 53.024A81.536 81.536 0 0 0 590.4 807.36l74.304-232.64 245.312-0.416c45.184-0.064 82.08-36.16 82.016-81.024a80.48 80.48 0 0 0-32.576-64.352l-200.864-149.76 75.296-238.24c13.568-42.976-11.072-88.352-54.496-101.408a83.2 83.2 0 0 0-73.344 12.736L512 95.936l-194.016-143.68z"  horiz-adv-x="1024" />

    
    <glyph glyph-name="wodedangxuan" unicode="&#58887;" d="M961.72259555-133.29749332999995H59.94723555c-18.64135111 0-37.28270222 9.32067555-48.93354666 23.30168888-11.65084445 16.31118222-16.31118222 34.95253333-11.65084444 53.59388445 46.60337778 237.67722667 240.00739555 414.77006222 473.02428444 433.41141333 78.06065778 0 162.52928-9.90321778 246.99790222-44.27320888 24.46677333-9.90321778 32.62236445-16.31118222 46.60337778-23.3016889 135.14979555-76.89557333 228.35655111-209.7152 258.64874666-365.83651555 4.66033778-18.64135111 0-37.28270222-13.98101333-53.59388445-11.65084445-13.98101333-30.29219555-23.30168889-48.93354667-23.30168888zM61.11232-95.43224888999998c-7.57304889 0-14.56355555 2.91271111-18.64135111 8.15559111-0.58254222 0.58254222-0.58254222 1.16508445-1.16508444 1.74762667-5.82542222 5.82542222-6.40796445 15.72864-5.24288 21.55406222 43.10812445 221.36604445 224.27875555 387.39057778 440.98446222 403.11921778h17.47626666c104.27505778 0 204.47232-32.62236445 253.40586667-63.49710222C876.08888889 198.75157333000004 961.72259555 78.16533332999995 988.51953778-63.974968890000014c1.16508445-8.15559111-0.58254222-15.72864-6.40796445-23.30168889-4.07779555-5.24288-11.06830222-8.15559111-18.64135111-8.15559111H61.11232zM494.52373333 325.16323554999997c101.36234667 0 198.64689778-31.45728 245.83281778-61.16693333h0.58254222c124.66403555-73.98286222 207.38503111-191.07384889 233.01688889-329.71889777 0.58254222-2.91271111 0.58254222-6.99050667-4.07779555-12.23338667-0.58254222-1.16508445-3.49525333-2.33016889-6.99050667-2.33016889H61.11232c-3.49525333 0-6.40796445 1.16508445-6.99050667 2.33016889-0.58254222 1.16508445-1.74762667 2.33016889-2.91271111 2.91271111-1.16508445 1.16508445-2.33016889 4.66033778-1.16508444 8.73813333 41.94304 214.95808 217.28824889 375.73973333 427.58599111 391.46837333 5.24288-0.58254222 11.06830222 0 16.89372444 0m0 29.12711112c-5.82542222 0-12.23338667 0-18.05880888-0.58254222C252.76871111 337.39662222000004 66.3552 167.29429332999996 22.08199111-61.06225777999998c-2.33016889-11.65084445 0-25.63185778 9.32067556-34.95253333 6.99050667-9.32067555 18.64135111-13.98101333 30.29219555-13.98101334H963.47022222c11.65084445 0 23.30168889 4.66033778 30.29219556 13.98101334 6.99050667 9.32067555 11.65084445 20.97152 9.32067555 34.95253333-27.96202667 149.13080889-116.50844445 271.46467555-246.99790222 349.52533333-49.51608889 30.87473778-150.87843555 65.82727111-261.56145778 65.82727112zM512 356.03797333c-146.80064 0-267.96942222 121.16878222-267.96942222 267.96942222S365.19936 891.97681778 512 891.97681778s267.96942222-121.16878222 267.96942222-267.96942223S658.80064 356.03797333 512 356.03797333zM512 393.90321778c-126.99420445 0-230.10417778 103.10997333-230.10417778 230.10417777S385.00579555 854.11157333 512 854.11157333s230.10417778-103.10997333 230.10417778-230.10417778-103.10997333-230.10417778-230.10417778-230.10417777zM512 839.54801778c118.83861333 0 215.54062222-96.70200889 215.54062222-215.54062223S630.83861333 408.46677333 512 408.46677333s-215.54062222 96.70200889-215.54062222 215.54062222 96.70200889 215.54062222 215.54062222 215.54062223m0 29.12711111c-135.14979555 0-244.66773333-109.51793778-244.66773333-244.66773334s109.51793778-244.66773333 244.66773333-244.66773333 244.66773333 109.51793778 244.66773333 244.66773333S647.14979555 868.67512889 512 868.67512889z"  horiz-adv-x="1024" />

    
    <glyph glyph-name="wodedangxuan1" unicode="&#58893;" d="M961.72259555-133.29749332999995H59.94723555c-18.64135111 0-37.28270222 9.32067555-48.93354666 23.30168888-11.65084445 16.31118222-16.31118222 34.95253333-11.65084444 53.59388445 46.60337778 237.67722667 240.00739555 414.77006222 473.02428444 433.41141333 78.06065778 0 162.52928-9.90321778 246.99790222-44.27320888 24.46677333-9.90321778 32.62236445-16.31118222 46.60337778-23.3016889 135.14979555-76.89557333 228.35655111-209.7152 258.64874666-365.83651555 4.66033778-18.64135111 0-37.28270222-13.98101333-53.59388445-11.65084445-13.98101333-30.29219555-23.30168889-48.93354667-23.30168888zM61.11232-95.43224888999998c-7.57304889 0-14.56355555 2.91271111-18.64135111 8.15559111-0.58254222 0.58254222-0.58254222 1.16508445-1.16508444 1.74762667-5.82542222 5.82542222-6.40796445 15.72864-5.24288 21.55406222 43.10812445 221.36604445 224.27875555 387.39057778 440.98446222 403.11921778h17.47626666c104.27505778 0 204.47232-32.62236445 253.40586667-63.49710222C876.08888889 198.75157333000004 961.72259555 78.16533332999995 988.51953778-63.974968890000014c1.16508445-8.15559111-0.58254222-15.72864-6.40796445-23.30168889-4.07779555-5.24288-11.06830222-8.15559111-18.64135111-8.15559111H61.11232zM494.52373333 325.16323554999997c101.36234667 0 198.64689778-31.45728 245.83281778-61.16693333h0.58254222c124.66403555-73.98286222 207.38503111-191.07384889 233.01688889-329.71889777 0.58254222-2.91271111 0.58254222-6.99050667-4.07779555-12.23338667-0.58254222-1.16508445-3.49525333-2.33016889-6.99050667-2.33016889H61.11232c-3.49525333 0-6.40796445 1.16508445-6.99050667 2.33016889-0.58254222 1.16508445-1.74762667 2.33016889-2.91271111 2.91271111-1.16508445 1.16508445-2.33016889 4.66033778-1.16508444 8.73813333 41.94304 214.95808 217.28824889 375.73973333 427.58599111 391.46837333 5.24288-0.58254222 11.06830222 0 16.89372444 0m0 29.12711112c-5.82542222 0-12.23338667 0-18.05880888-0.58254222C252.76871111 337.39662222000004 66.3552 167.29429332999996 22.08199111-61.06225777999998c-2.33016889-11.65084445 0-25.63185778 9.32067556-34.95253333 6.99050667-9.32067555 18.64135111-13.98101333 30.29219555-13.98101334H963.47022222c11.65084445 0 23.30168889 4.66033778 30.29219556 13.98101334 6.99050667 9.32067555 11.65084445 20.97152 9.32067555 34.95253333-27.96202667 149.13080889-116.50844445 271.46467555-246.99790222 349.52533333-49.51608889 30.87473778-150.87843555 65.82727111-261.56145778 65.82727112zM512 356.03797333c-146.80064 0-267.96942222 121.16878222-267.96942222 267.96942222S365.19936 891.97681778 512 891.97681778s267.96942222-121.16878222 267.96942222-267.96942223S658.80064 356.03797333 512 356.03797333zM512 393.90321778c-126.99420445 0-230.10417778 103.10997333-230.10417778 230.10417777S385.00579555 854.11157333 512 854.11157333s230.10417778-103.10997333 230.10417778-230.10417778-103.10997333-230.10417778-230.10417778-230.10417777zM512 839.54801778c118.83861333 0 215.54062222-96.70200889 215.54062222-215.54062223S630.83861333 408.46677333 512 408.46677333s-215.54062222 96.70200889-215.54062222 215.54062222 96.70200889 215.54062222 215.54062222 215.54062223m0 29.12711111c-135.14979555 0-244.66773333-109.51793778-244.66773333-244.66773334s109.51793778-244.66773333 244.66773333-244.66773333 244.66773333 109.51793778 244.66773333 244.66773333S647.14979555 868.67512889 512 868.67512889z"  horiz-adv-x="1024" />

    
    <glyph glyph-name="gouwu5" unicode="&#59033;" d="M682.666667 554.666667v-136.533334h-68.266667v136.533334h-204.8v-136.533334h-68.266667v136.533334H267.1616l-26.282667-443.733334h542.242134l-26.282667 443.733334H682.666667z m-337.92 68.266666a170.734933 170.734933 0 0 0 334.506666 0h109.7728a34.133333 34.133333 0 0 0 34.065067-32.085333l30.3104-512a34.133333 34.133333 0 0 0-34.065067-36.181333H204.663467a34.133333 34.133333 0 0 0-34.065067 36.181333l30.3104 512A34.133333 34.133333 0 0 0 234.973867 622.933333H344.746667z m70.656 0h193.194666a102.434133 102.434133 0 0 1-193.194666 0z"  horiz-adv-x="1024" />

    
    <glyph glyph-name="bangzhuzhongxin1" unicode="&#59031;" d="M318.464 376.832c6.144-3.072 12.8-4.608 19.456-4.608 9.216 0 18.432 3.072 26.112 8.704l101.376 76.288 101.376-76.288c13.312-9.728 30.72-11.264 45.568-4.096 14.848 7.168 24.064 22.528 24.064 38.912V758.272h-66.56v-296.448L497.664 516.096c-18.944 14.336-45.568 14.336-64.512 0L360.96 461.824V758.272h-66.56v-342.528c0-16.384 9.216-31.744 24.064-38.912zM826.368 824.832h-609.28c-48.128 0-87.04-38.912-87.04-87.04V30.72c0-48.128 38.912-87.04 87.04-87.04h609.28c48.128 0 87.04 38.912 87.04 87.04V737.792c0 48.128-38.912 87.04-87.04 87.04z m20.48-794.112c0-11.264-9.216-20.48-20.48-20.48h-609.28c-11.264 0-20.48 9.216-20.48 20.48V737.792c0 11.264 9.216 20.48 20.48 20.48h609.792c11.264 0 20.48-9.216 20.48-20.48V30.72z"  horiz-adv-x="1024" />

    
    <glyph glyph-name="yonghu" unicode="&#58880;" d="M865.229 27.136c-8.284 0-15 6.716-15 15 0 186.922-152.072 338.994-338.995 338.994S172.239 229.058 172.239 42.136c0-8.284-6.716-15-15-15s-15 6.716-15 15c0 49.808 9.758 98.133 29.003 143.634 18.586 43.941 45.19 83.402 79.073 117.285 33.883 33.883 73.343 60.486 117.285 79.072 45.501 19.245 93.827 29.003 143.634 29.003s98.133-9.758 143.634-29.003c43.941-18.586 83.401-45.189 117.284-79.072 33.884-33.883 60.487-73.344 79.072-117.285 19.246-45.501 29.004-93.826 29.004-143.634 0.001-8.284-6.715-15-14.999-15zM512.896 384.409c-59.496 0-115.431 23.169-157.5 65.239-42.07 42.07-65.239 98.004-65.239 157.5s23.169 115.431 65.239 157.5c42.07 42.07 98.004 65.239 157.5 65.239s115.431-23.169 157.501-65.239c42.069-42.07 65.238-98.004 65.238-157.5s-23.169-115.431-65.238-157.5c-42.07-42.07-98.004-65.239-157.501-65.239z m0 415.479c-106.277 0-192.74-86.463-192.74-192.74s86.463-192.739 192.74-192.739c106.276 0 192.739 86.462 192.739 192.739s-86.462 192.74-192.739 192.74z"  horiz-adv-x="1024" />

    
    <glyph glyph-name="jia" unicode="&#58884;" d="M0 896h1024v-1024H0zM512-30.5c-20.8 0-37.7 16.9-37.7 37.7V760.9c0 20.8 16.9 37.7 37.7 37.7 20.8 0 37.7-16.9 37.7-37.7v-753.7c0-20.9-16.9-37.7-37.7-37.7zM888.9 346.3H135.1c-20.8 0-37.7 16.9-37.7 37.7 0 20.8 16.9 37.7 37.7 37.7h753.7c20.8 0 37.7-16.9 37.7-37.7 0-20.8-16.8-37.7-37.6-37.7z"  horiz-adv-x="1024" />

    
    <glyph glyph-name="zan" unicode="&#58894;" d="M0 896h1024v-1024H0zM566.3 717.4c1.8 0 6.4 0 12.8-6.8 5.7-6.1 24.1-30.9 20.1-92.3-2.1-32.6-6.1-56.6-9-74.1-4.9-29.8-10.1-60.7 13.9-89 14.1-16.6 34.9-26.2 57-26.2 61.9 0 152.7-0.5 162.1-0.5h0.8c8.8-0.6 24.1-5.1 29-11.6 3.1-4.2 4.9-15.8 0.4-35.5l-70.6-312C778.7 61 769 52 746.4 52c-65.2 0-424.4-1-578.5-1.4V396.5l103.1-1.4h1c4.9 0 9.8 0.5 14.6 1.5 59.6 12.6 167.3 64.2 193.5 178.9 21.7 107.3 67.5 141.9 86.2 141.9m217.4-645.9c0-0.1 0-0.1 0 0 0-0.1 0 0 0 0M566.3 787.6c-59.4 0-127.4-61.9-155.1-198.1C388.5 490 272 465.3 272 465.3l-129 1.8h-0.8c-24.5 0-44.5-19.9-44.5-44.5v-407.8c0-19 15.2-34.4 34.2-34.4h0.1c123.7 0.3 543.4 1.5 614.4 1.5 83.4 0 103.6 66.8 103.6 66.8s42.8 188.7 71.8 317.3c29 128.5-94.5 132.7-94.5 132.7s-99.7 0.6-166.2 0.6c-13 0 2.8 33 8.1 114.5 7.3 111.7-43.4 173.8-102.9 173.8zM255.1 435.1h70.2v-411h-70.2z"  horiz-adv-x="1024" />

    
    <glyph glyph-name="caidan" unicode="&#58897;" d="M256 420.571429m18.102857 0l731.794286 0q18.102857 0 18.102857-18.102858l0-36.937142q0-18.102857-18.102857-18.102858l-731.794286 0q-18.102857 0-18.102857 18.102858l0 36.937142q0 18.102857 18.102857 18.102858ZM256 749.714286m18.102857 0l731.794286 0q18.102857 0 18.102857-18.102857l0-36.937143q0-18.102857-18.102857-18.102857l-731.794286 0q-18.102857 0-18.102857 18.102857l0 36.937143q0 18.102857 18.102857 18.102857ZM256 91.42857100000003m18.102857 0l731.794286 0q18.102857 0 18.102857-18.102857l0-36.937143q0-18.102857-18.102857-18.102857l-731.794286 0q-18.102857 0-18.102857 18.102857l0 36.937143q0 18.102857 18.102857 18.102857ZM73.142857 713.142857m-73.142857 0a73.142857 73.142857 0 1 1 146.285714 0 73.142857 73.142857 0 1 1-146.285714 0ZM73.142857 384m-73.142857 0a73.142857 73.142857 0 1 1 146.285714 0 73.142857 73.142857 0 1 1-146.285714 0ZM73.142857 54.85714299999995m-73.142857 0a73.142857 73.142857 0 1 1 146.285714 0 73.142857 73.142857 0 1 1-146.285714 0Z"  horiz-adv-x="1024" />

    
    <glyph glyph-name="chaxun" unicode="&#58900;" d="M402.285714 822.857143A329.142857 329.142857 0 1 0 73.142857 493.714286 329.142857 329.142857 0 0 0 402.285714 822.857143m0 73.142857a402.285714 402.285714 0 1 1 402.285715-402.285714A402.285714 402.285714 0 0 1 402.285714 896zM620.940904 223.375857m18.101934 18.101933l15.515943 15.515943q18.101934 18.101934 36.203867 0l325.834805-325.834804q18.101934-18.101934 0-36.203868l-15.515943-15.515943q-18.101934-18.101934-36.203867 0l-325.834805 325.834805q-18.101934 18.101934 0 36.203867Z"  horiz-adv-x="1024" />

    
    <glyph glyph-name="canshu" unicode="&#58901;" d="M146.285714 896m18.285715 0l36.571428 0q18.285714 0 18.285714-18.285714l0-596.662857q0-18.285714-18.285714-18.285715l-36.571428 0q-18.285714 0-18.285715 18.285715l0 596.662857q0 18.285714 18.285715 18.285714ZM146.285714 119.77142900000001m18.285715 0l36.571428 0q18.285714 0 18.285714-18.285715l0-211.2q0-18.285714-18.285714-18.285714l-36.571428 0q-18.285714 0-18.285715 18.285714l0 211.2q0 18.285714 18.285715 18.285715ZM804.571429 896m18.285714 0l36.571428 0q18.285714 0 18.285715-18.285714l0-592.274286q0-18.285714-18.285715-18.285714l-36.571428 0q-18.285714 0-18.285714 18.285714l0 592.274286q0 18.285714 18.285714 18.285714ZM804.571429 116.84571400000004m18.285714 0l36.571428 0q18.285714 0 18.285715-18.285714l0-208.274286q0-18.285714-18.285715-18.285714l-36.571428 0q-18.285714 0-18.285714 18.285714l0 208.274286q0 18.285714 18.285714 18.285714ZM475.428571 505.051429m18.285715 0l36.571428 0q18.285714 0 18.285715-18.285715l0-596.48q0-18.285714-18.285715-18.285714l-36.571428 0q-18.285714 0-18.285715 18.285714l0 596.48q0 18.285714 18.285715 18.285715ZM182.857143 237.71428600000002h3.108571a54.857143 54.857143 0 0 0-3.108571-109.714286h-2.925714a54.857143 54.857143 0 0 0 2.925714 109.714286m0 73.142857a128 128 0 0 1-6.582857-256H182.857143a128 128 0 0 1 6.582857 256zM512 644.571429h3.108571a54.857143 54.857143 0 0 0-2.742857-109.714286h-3.108571a54.857143 54.857143 0 0 0 2.742857 109.714286m0 73.142857a128 128 0 0 1-6.582857-256H512a128 128 0 0 1 6.582857 256zM841.142857 237.71428600000002h3.108572a54.857143 54.857143 0 0 0-3.108572-109.714286h-3.108571a54.857143 54.857143 0 0 0 3.108571 109.714286m0 73.142857a128 128 0 0 1-6.582857-256H841.142857a128 128 0 0 1 6.582857 256zM475.428571 896m18.285715 0l36.571428 0q18.285714 0 18.285715-18.285714l0-188.525715q0-18.285714-18.285715-18.285714l-36.571428 0q-18.285714 0-18.285715 18.285714l0 188.525715q0 18.285714 18.285715 18.285714Z"  horiz-adv-x="1024" />

    
    <glyph glyph-name="dengji" unicode="&#58903;" d="M512 822.857143A438.857143 438.857143 0 1 0 73.142857 384 438.857143 438.857143 0 0 0 512 822.857143m0 73.142857a512 512 0 1 1 512-512A512 512 0 0 1 512 896zM274.285714 420.571429m25.6 0l424.228572 0q25.6 0 25.6-25.6l0-21.942858q0-25.6-25.6-25.6l-424.228572 0q-25.6 0-25.6 25.6l0 21.942858q0 25.6 25.6 25.6ZM475.428571 621.714286m25.6 0l21.942858 0q25.6 0 25.6-25.6l0-424.228572q0-25.6-25.6-25.6l-21.942858 0q-25.6 0-25.6 25.6l0 424.228572q0 25.6 25.6 25.6Z"  horiz-adv-x="1024" />

    
    <glyph glyph-name="zhuye" unicode="&#58907;" d="M806.4-121.60000000000002h-95.085714a89.782857 89.782857 0 0 0-89.6 89.782857v157.805714a16.64 16.64 0 0 1-16.457143 16.457143H418.742857a16.64 16.64 0 0 1-16.457143-16.457143v-157.805714a89.782857 89.782857 0 0 0-89.6-89.782857h-95.085714A89.782857 89.782857 0 0 0 128-31.817142999999987V200.04571399999998a52.845714 52.845714 0 0 1-34.742857 16.457143 89.782857 89.782857 0 0 0-69.668572 146.285714l419.291429 493.714286a89.6 89.6 0 0 0 138.788571 0l418.742858-493.714286a89.782857 89.782857 0 0 0-69.668572-146.285714 48.457143 48.457143 0 0 1-34.925714-18.285714v-230.4a89.782857 89.782857 0 0 0-89.417143-89.417143zM418.742857 215.588571h186.514286a89.782857 89.782857 0 0 0 89.6-89.6v-157.805714a16.64 16.64 0 0 1 16.457143-16.64h95.085714a16.64 16.64 0 0 1 16.457143 16.64V200.04571399999998c0 54.857143 64 89.6 107.885714 89.6a15.908571 15.908571 0 0 1 14.994286 9.508572 15.725714 15.725714 0 0 1-1.828572 17.188571l-418.56 493.714286a17.188571 17.188571 0 0 1-13.348571 6.4 16.274286 16.274286 0 0 1-12.8-6.217143l-419.291429-493.714286a15.36 15.36 0 0 1-1.645714-16.822857 15.908571 15.908571 0 0 1 14.994286-9.508571c43.885714 0 107.885714-34.925714 107.885714-89.6v-232.411429a16.64 16.64 0 0 1 16.457143-16.64h95.085714a16.64 16.64 0 0 1 16.457143 16.64v157.805714a89.782857 89.782857 0 0 0 89.6 89.6z"  horiz-adv-x="1024" />

    
    <glyph glyph-name="icon-test1" unicode="&#58895;" d="M869.8 491.3l0.6 0.9 0.6 0.9 0.3 0.6c0.2 0.4 0.5 0.8 0.7 1.3l0.3 0.6c0.2 0.4 0.4 0.9 0.6 1.3 0.1 0.3 0.2 0.5 0.3 0.8 0.1 0.4 0.3 0.8 0.4 1.1 0.1 0.3 0.2 0.7 0.3 1 0.1 0.3 0.2 0.7 0.3 1 0.1 0.4 0.2 0.7 0.2 1.1 0.1 0.3 0.1 0.6 0.2 1s0.1 0.7 0.2 1.1c0 0.3 0.1 0.6 0.1 1s0.1 0.7 0.1 1.1c0 0.3 0.1 0.7 0.1 1v1 1.1c0 0.3 0 0.6-0.1 1 0 0.4 0 0.7-0.1 1.1 0 0.3-0.1 0.6-0.1 0.9-0.1 0.4-0.1 0.8-0.2 1.1-0.1 0.3-0.1 0.6-0.2 0.9-0.1 0.4-0.2 0.7-0.2 1.1-0.1 0.3-0.2 0.6-0.3 1-0.1 0.4-0.2 0.7-0.3 1.1s-0.2 0.7-0.4 1l-0.3 0.9c-0.2 0.4-0.3 0.7-0.5 1.1-0.1 0.2-0.2 0.5-0.3 0.8v0.1c-0.2 0.4-0.4 0.7-0.6 1-0.2 0.3-0.3 0.6-0.5 0.8-0.2 0.3-0.3 0.5-0.5 0.8-0.2 0.3-0.4 0.7-0.7 1-0.1 0.2-0.3 0.4-0.4 0.5l-0.9 1.2v0.1L730.8 700.6c-5.7 7.2-14.4 11.4-23.5 11.4H330c-8.7 0-17-3.8-22.7-10.3l-151-173.9c-0.1-0.2-0.3-0.3-0.4-0.5-0.3-0.3-0.5-0.6-0.8-0.9-0.2-0.3-0.4-0.5-0.6-0.8l-0.6-0.9-0.6-0.9c-0.2-0.3-0.4-0.6-0.5-0.9-0.2-0.3-0.4-0.7-0.5-1l-0.3-0.6c-0.1-0.1-0.1-0.2-0.1-0.3-0.2-0.3-0.3-0.7-0.5-1-0.1-0.3-0.3-0.6-0.4-1-0.1-0.3-0.2-0.7-0.4-1-0.1-0.3-0.2-0.7-0.3-1-0.1-0.3-0.2-0.6-0.3-1-0.1-0.4-0.2-0.7-0.3-1.1-0.1-0.3-0.1-0.6-0.2-0.9-0.1-0.4-0.1-0.7-0.2-1.1 0-0.3-0.1-0.6-0.1-1s-0.1-0.7-0.1-1.1c0-0.3 0-0.7-0.1-1v-3.2c0-0.4 0-0.7 0.1-1.1 0-0.3 0.1-0.7 0.1-1 0-0.4 0.1-0.7 0.2-1.1 0.1-0.3 0.1-0.7 0.2-1 0.1-0.3 0.1-0.7 0.2-1 0.1-0.3 0.2-0.7 0.3-1 0.1-0.3 0.2-0.7 0.3-1 0.1-0.4 0.2-0.7 0.3-1.1l0.3-0.9c0.1-0.4 0.3-0.7 0.4-1.1 0.1-0.2 0.1-0.4 0.2-0.5 0.1-0.1 0.1-0.2 0.2-0.3 0.2-0.4 0.3-0.7 0.5-1 0.2-0.3 0.3-0.6 0.5-0.9l0.6-0.9 0.6-0.9c0.2-0.3 0.4-0.6 0.6-0.8 0.2-0.3 0.4-0.6 0.7-0.9 0.1-0.1 0.1-0.2 0.2-0.3l332.9-422s0-0.1 0.1-0.1l0.1-0.1c0.4-0.5 0.9-1.1 1.3-1.6 0.1-0.2 0.3-0.3 0.4-0.5l1.2-1.2c0.1-0.1 0.2-0.2 0.4-0.3 0.5-0.5 1.1-0.9 1.6-1.4 0.1-0.1 0.2-0.2 0.4-0.3 0.5-0.4 1-0.7 1.5-1 0.1-0.1 0.3-0.2 0.5-0.3 0.6-0.4 1.2-0.8 1.8-1.1 0.1-0.1 0.3-0.1 0.4-0.2 0.5-0.3 1-0.5 1.6-0.8l0.6-0.3c0.6-0.3 1.3-0.5 1.9-0.8 0.1 0 0.3-0.1 0.4-0.1 0.6-0.2 1.1-0.4 1.7-0.5 0.2-0.1 0.4-0.1 0.7-0.2 0.7-0.2 1.4-0.3 2.1-0.4h0.2c0.7-0.1 1.3-0.2 2-0.3 0.2 0 0.4 0 0.6-0.1 0.8-0.1 1.5-0.1 2.3-0.1s1.5 0 2.3 0.1c0.2 0 0.4 0 0.6 0.1 0.7 0.1 1.4 0.1 2 0.3h0.2c0.7 0.1 1.4 0.3 2.1 0.4 0.2 0.1 0.4 0.1 0.7 0.2 0.6 0.2 1.1 0.3 1.7 0.5 0.1 0 0.3 0.1 0.4 0.1 0.7 0.2 1.3 0.5 1.9 0.8l0.6 0.3c0.5 0.2 1.1 0.5 1.6 0.8 0.1 0.1 0.3 0.1 0.4 0.2 0.6 0.3 1.2 0.7 1.8 1.1 0.2 0.1 0.3 0.2 0.5 0.3 0.5 0.3 1 0.7 1.5 1 0.1 0.1 0.2 0.2 0.4 0.3 0.6 0.4 1.1 0.9 1.6 1.4 0.1 0.1 0.2 0.2 0.4 0.3l1.2 1.2c0.1 0.1 0.3 0.3 0.4 0.5 0.5 0.5 0.9 1 1.3 1.6l0.1 0.1s0 0.1 0.1 0.1l332.9 422c0.3 0.4 0.5 0.7 0.8 1.1-0.2 0 0 0.2 0.1 0.4zM783 538H639l-38.3 114h92L783 538z m-338-60h134l-67-268.3L445 478z m92.4 174l38.3-114H449.3l41 114h47.1z m-193.8 0h82.9l-41-114H244.8l98.8 114z m39.6-174l65.9-263.9L240.9 478h142.3z m191.7-263.9L640.8 478h142.3L574.9 214.1z"  horiz-adv-x="1024" />

    
    <glyph glyph-name="course" unicode="&#59032;" d="M298.048 629.248l127.392-229.376a40 40 0 0 0 0-38.88l-127.28-228.768 430.304 248.48-430.4 248.544z m-70.016 27.216A32 32 0 0 0 272 699.712l504.448-291.296a32 32 0 0 0 0-55.424L272.048 61.728a32 32 0 0 0-43.968 43.264l153.248 275.456-153.296 276.016z"  horiz-adv-x="1024" />

    
    <glyph glyph-name="delete" unicode="&#59034;" d="M656 608h144a16 16 0 0 0 16-16v-16a16 16 0 0 0-16-16h-48v-496a16 16 0 0 0-16-16H288a16 16 0 0 0-16 16V560h-48a16 16 0 0 0-16 16v16a16 16 0 0 0 16 16h144v80a16 16 0 0 0 16 16h256a16 16 0 0 0 16-16v-80z m-48 0v48H416v-48h192z m32-48H320v-464h384V560h-64z m-208-112h16a16 16 0 0 0 16-16v-192a16 16 0 0 0-16-16h-16a16 16 0 0 0-16 16V432a16 16 0 0 0 16 16z m144 0h16a16 16 0 0 0 16-16v-192a16 16 0 0 0-16-16h-16a16 16 0 0 0-16 16V432a16 16 0 0 0 16 16z"  horiz-adv-x="1024" />

    
    <glyph glyph-name="home" unicode="&#59035;" d="M267.168 441.376v-316.48h152V297.776c0 6.144 4.992 11.12 11.136 11.12h169.728c6.16 0 11.136-4.976 11.136-11.12v-172.88h136V442.4l-239.36 188.848-240.64-189.856z m-48-37.872l-39.36-31.04a16 16 0 0 0-22.464 2.656l-9.904 12.56a16 16 0 0 0 2.656 22.464l347.792 274.416a16 16 0 0 0 19.84 0l347.792-274.4a16 16 0 0 0 2.656-22.48l-9.92-12.56a16 16 0 0 0-22.464-2.656l-40.624 32.048v-292.48a35.136 35.136 0 0 0-35.136-35.136H254.304a35.136 35.136 0 0 0-35.136 35.136V403.504z m248-270.608h96v128h-96v-128z"  horiz-adv-x="1024" />

    
    <glyph glyph-name="movie" unicode="&#59044;" d="M304 638.64v-505.712L717.824 385.76 304 638.64z m22.384-548.288A46.256 46.256 0 0 0 256 129.824V641.744a46.256 46.256 0 0 0 70.384 39.472l418.88-255.952a46.256 46.256 0 0 0 0-78.96L326.4 90.352z m173.408 277.76l-91.968-45.984a11.136 11.136 0 0 0-16.112 9.952v91.984a11.136 11.136 0 0 0 16.112 9.952l91.968-46a11.136 11.136 0 0 0 0-19.904z"  horiz-adv-x="1024" />

    


  </font>
</defs>
</svg>
